<?xml version="1.0" encoding="UTF-8" standalone="no"?>
<svg xmlns="http://www.w3.org/2000/svg" version="1.1" viewBox="0 0 1104 881">
   <polyline fill="none" points="198,526 608,526 608,746 628,746" stroke="rgb(0, 0, 0)" stroke-linecap="square" stroke-width="3.0"/>
   <polyline fill="none" points="648,646 678,646 678,626 1098,626 1098,716" stroke="rgb(0, 0, 0)" stroke-linecap="square" stroke-width="3.0"/>
   <polyline fill="none" points="478,186 478,486 848,486 848,376" stroke="rgb(0, 0, 0)" stroke-linecap="square" stroke-width="4.0"/>
   <polyline fill="none" points="818,716 818,746 908,746" stroke="rgb(0, 0, 0)" stroke-linecap="square" stroke-width="3.0"/>
   <polyline fill="none" points="848,226 798,226 798,386 198,386" stroke="rgb(0, 0, 0)" stroke-linecap="square" stroke-width="3.0"/>
   <polyline fill="none" points="198,456 818,456 818,286 848,286" stroke="rgb(0, 0, 0)" stroke-linecap="square" stroke-width="3.0"/>
   <polyline fill="none" points="88,376 158,376" stroke="rgb(0, 0, 0)" stroke-linecap="square" stroke-width="4.0"/>
   <polyline fill="none" points="88,446 158,446" stroke="rgb(0, 0, 0)" stroke-linecap="square" stroke-width="4.0"/>
   <polyline fill="none" points="618,636 618,686 628,686" stroke="rgb(0, 0, 0)" stroke-linecap="square" stroke-width="3.0"/>
   <ellipse cx="468.0" cy="166.0" fill="rgb(0, 0, 0)" rx="6.0" ry="6.0" stroke="none" stroke-width="3.0"/>
   <ellipse cx="88.0" cy="446.0" fill="rgb(0, 0, 0)" rx="6.0" ry="6.0" stroke="none" stroke-width="3.0"/>
   <ellipse cx="678.0" cy="626.0" fill="rgb(0, 0, 0)" rx="5.0" ry="5.0" stroke="none" stroke-width="3.0"/>
   <ellipse cx="88.0" cy="376.0" fill="rgb(0, 0, 0)" rx="6.0" ry="6.0" stroke="none" stroke-width="3.0"/>
   <polyline fill="none" points="88,163 88,166 88,376 88,446 88,516 158,516" stroke="rgb(0, 0, 0)" stroke-linecap="square" stroke-width="4.0"/>
   <polygon fill="none" points="79,151 88,161 97,151 97,57 79,57" stroke="rgb(0, 0, 0)" stroke-linecap="square" stroke-width="2.0"/>
   <text fill="rgb(0, 0, 0)" font-family="Monospaced" font-size="12" transform="rotate(90.0,82.0,97.0)" x="82.0" y="97.0">x8</text>
   <text fill="rgb(0, 0, 0)" font-family="Monospaced" font-size="16" font-weight="bold" x="5.0" y="50.0">MICROCODE_ADDR</text>
   <ellipse cx="88.0" cy="166.0" fill="rgb(0, 0, 0)" rx="2.0" ry="2.0" stroke="none" stroke-width="2.0"/>
   <text fill="rgb(0, 0, 0)" font-family="Monospaced" font-size="12" x="140.0" y="400.0">b7</text>
   <ellipse cx="158.0" cy="396.0" fill="rgb(0, 0, 0)" rx="2.0" ry="2.0" stroke="none" stroke-width="1.0"/>
   <text fill="rgb(0, 0, 0)" font-family="Monospaced" font-size="12" x="140.0" y="470.0">c2</text>
   <ellipse cx="158.0" cy="466.0" fill="rgb(0, 0, 0)" rx="2.0" ry="2.0" stroke="none" stroke-width="1.0"/>
   <text fill="rgb(0, 0, 0)" font-family="Monospaced" font-size="12" x="140.0" y="540.0">c3</text>
   <ellipse cx="158.0" cy="536.0" fill="rgb(0, 0, 0)" rx="2.0" ry="2.0" stroke="none" stroke-width="1.0"/>
   <polyline fill="none" points="388,133 388,136 388,166" stroke="rgb(0, 0, 0)" stroke-linecap="square" stroke-width="4.0"/>
   <polygon fill="none" points="379,121 388,131 397,121 397,27 379,27" stroke="rgb(0, 0, 0)" stroke-linecap="square" stroke-width="2.0"/>
   <text fill="rgb(0, 0, 0)" font-family="Monospaced" font-size="12" transform="rotate(90.0,382.0,67.0)" x="382.0" y="67.0">x8</text>
   <text fill="rgb(0, 0, 0)" font-family="Monospaced" font-size="16" font-weight="bold" x="382.0" y="20.0">R</text>
   <ellipse cx="388.0" cy="136.0" fill="rgb(0, 0, 0)" rx="2.0" ry="2.0" stroke="none" stroke-width="2.0"/>
   <polyline fill="none" points="428,133 428,136 428,166" stroke="rgb(0, 0, 0)" stroke-linecap="square" stroke-width="4.0"/>
   <polygon fill="none" points="419,121 428,131 437,121 437,27 419,27" stroke="rgb(0, 0, 0)" stroke-linecap="square" stroke-width="2.0"/>
   <text fill="rgb(0, 0, 0)" font-family="Monospaced" font-size="12" transform="rotate(90.0,422.0,67.0)" x="422.0" y="67.0">x8</text>
   <text fill="rgb(0, 0, 0)" font-family="Monospaced" font-size="16" font-weight="bold" x="422.0" y="20.0">G</text>
   <ellipse cx="428.0" cy="136.0" fill="rgb(0, 0, 0)" rx="2.0" ry="2.0" stroke="none" stroke-width="2.0"/>
   <polyline fill="none" points="468,133 468,136 468,166 458,166" stroke="rgb(0, 0, 0)" stroke-linecap="square" stroke-width="4.0"/>
   <polygon fill="none" points="459,121 468,131 477,121 477,27 459,27" stroke="rgb(0, 0, 0)" stroke-linecap="square" stroke-width="2.0"/>
   <text fill="rgb(0, 0, 0)" font-family="Monospaced" font-size="12" transform="rotate(90.0,462.0,67.0)" x="462.0" y="67.0">x8</text>
   <text fill="rgb(0, 0, 0)" font-family="Monospaced" font-size="16" font-weight="bold" x="462.0" y="20.0">B</text>
   <ellipse cx="468.0" cy="136.0" fill="rgb(0, 0, 0)" rx="2.0" ry="2.0" stroke="none" stroke-width="2.0"/>
   <polyline fill="none" points="468,166 468,180" stroke="rgb(0, 0, 0)" stroke-linecap="square" stroke-width="3.0"/>
   <polyline fill="none" points="428,166 428,180" stroke="rgb(0, 0, 0)" stroke-linecap="square" stroke-width="3.0"/>
   <polyline fill="none" points="388,166 388,180" stroke="rgb(0, 0, 0)" stroke-linecap="square" stroke-width="3.0"/>
   <polyline fill="none" points="389,180 472,180 477,185" stroke="rgb(0, 0, 0)" stroke-linecap="square" stroke-width="5.0"/>
   <text fill="rgb(0, 0, 0)" font-family="SansSerif" font-size="7" transform="rotate(90.0,471.0,166.0)" x="471.0" y="166.0">7-0</text>
   <text fill="rgb(0, 0, 0)" font-family="SansSerif" font-size="7" transform="rotate(90.0,431.0,162.0)" x="431.0" y="162.0">15-8</text>
   <text fill="rgb(0, 0, 0)" font-family="SansSerif" font-size="7" transform="rotate(90.0,391.0,158.0)" x="391.0" y="158.0">23-16</text>
   <ellipse cx="478.0" cy="186.0" fill="rgb(0, 0, 0)" rx="2.0" ry="2.0" stroke="none" stroke-width="5.0"/>
   <ellipse cx="468.0" cy="166.0" fill="rgb(0, 0, 0)" rx="2.0" ry="2.0" stroke="none" stroke-width="5.0"/>
   <ellipse cx="428.0" cy="166.0" fill="rgb(0, 0, 0)" rx="2.0" ry="2.0" stroke="none" stroke-width="5.0"/>
   <ellipse cx="388.0" cy="166.0" fill="rgb(0, 0, 0)" rx="2.0" ry="2.0" stroke="none" stroke-width="5.0"/>
   <polyline fill="none" points="588,161 588,166 588,396 808,396 808,256 848,256" stroke="rgb(0, 0, 0)" stroke-linecap="square" stroke-width="3.0"/>
   <polygon fill="none" points="579,151 588,161 597,151 597,127 579,127" stroke="rgb(0, 0, 0)" stroke-linecap="square" stroke-width="2.0"/>
   <text fill="rgb(0, 0, 0)" font-family="Monospaced" font-size="12" transform="rotate(90.0,582.0,132.0)" x="582.0" y="132.0">x1</text>
   <text fill="rgb(0, 0, 0)" font-family="Monospaced" font-size="16" font-weight="bold" x="550.0" y="120.0">CPU_CLK</text>
   <ellipse cx="588.0" cy="166.0" fill="rgb(0, 0, 0)" rx="2.0" ry="2.0" stroke="none" stroke-width="2.0"/>
   <polyline fill="none" points="852,226 849,226" stroke="rgb(0, 0, 0)" stroke-linecap="square" stroke-width="3.0"/>
   <polygon fill="none" points="878,217 888,226 878,235 854,235 854,217" stroke="rgb(0, 0, 0)" stroke-linecap="square" stroke-width="2.0"/>
   <text fill="rgb(0, 0, 0)" font-family="Monospaced" font-size="12" x="854.0" y="232.0">x1</text>
   <text fill="rgb(0, 0, 0)" font-family="Monospaced" font-size="16" font-weight="bold" x="890.0" y="233.0">S_RESET</text>
   <ellipse cx="848.0" cy="226.0" fill="rgb(0, 0, 0)" rx="2.0" ry="2.0" stroke="none" stroke-width="2.0"/>
   <polyline fill="none" points="852,256 849,256" stroke="rgb(0, 0, 0)" stroke-linecap="square" stroke-width="3.0"/>
   <polygon fill="none" points="878,247 888,256 878,265 854,265 854,247" stroke="rgb(0, 0, 0)" stroke-linecap="square" stroke-width="2.0"/>
   <text fill="rgb(0, 0, 0)" font-family="Monospaced" font-size="12" x="854.0" y="262.0">x1</text>
   <text fill="rgb(0, 0, 0)" font-family="Monospaced" font-size="16" font-weight="bold" x="890.0" y="263.0">S_CLK</text>
   <ellipse cx="848.0" cy="256.0" fill="rgb(0, 0, 0)" rx="2.0" ry="2.0" stroke="none" stroke-width="2.0"/>
   <polyline fill="none" points="852,286 849,286" stroke="rgb(0, 0, 0)" stroke-linecap="square" stroke-width="3.0"/>
   <polygon fill="none" points="878,277 888,286 878,295 854,295 854,277" stroke="rgb(0, 0, 0)" stroke-linecap="square" stroke-width="2.0"/>
   <text fill="rgb(0, 0, 0)" font-family="Monospaced" font-size="12" x="854.0" y="292.0">x1</text>
   <text fill="rgb(0, 0, 0)" font-family="Monospaced" font-size="16" font-weight="bold" x="890.0" y="293.0">S_WRITE</text>
   <ellipse cx="848.0" cy="286.0" fill="rgb(0, 0, 0)" rx="2.0" ry="2.0" stroke="none" stroke-width="2.0"/>
   <polyline fill="none" points="852,316 851,316" stroke="rgb(0, 0, 0)" stroke-linecap="square" stroke-width="4.0"/>
   <polygon fill="none" points="888,307 898,316 888,325 854,325 854,307" stroke="rgb(0, 0, 0)" stroke-linecap="square" stroke-width="2.0"/>
   <text fill="rgb(0, 0, 0)" font-family="Monospaced" font-size="12" x="859.0" y="322.0">x5</text>
   <text fill="rgb(0, 0, 0)" font-family="Monospaced" font-size="16" font-weight="bold" x="900.0" y="323.0">S_X</text>
   <ellipse cx="848.0" cy="316.0" fill="rgb(0, 0, 0)" rx="2.0" ry="2.0" stroke="none" stroke-width="2.0"/>
   <polyline fill="none" points="852,346 851,346" stroke="rgb(0, 0, 0)" stroke-linecap="square" stroke-width="4.0"/>
   <polygon fill="none" points="888,337 898,346 888,355 854,355 854,337" stroke="rgb(0, 0, 0)" stroke-linecap="square" stroke-width="2.0"/>
   <text fill="rgb(0, 0, 0)" font-family="Monospaced" font-size="12" x="859.0" y="352.0">x5</text>
   <text fill="rgb(0, 0, 0)" font-family="Monospaced" font-size="16" font-weight="bold" x="900.0" y="353.0">S_Y</text>
   <ellipse cx="848.0" cy="346.0" fill="rgb(0, 0, 0)" rx="2.0" ry="2.0" stroke="none" stroke-width="2.0"/>
   <polyline fill="none" points="852,376 851,376" stroke="rgb(0, 0, 0)" stroke-linecap="square" stroke-width="4.0"/>
   <polygon fill="none" points="918,367 928,376 918,385 854,385 854,367" stroke="rgb(0, 0, 0)" stroke-linecap="square" stroke-width="2.0"/>
   <text fill="rgb(0, 0, 0)" font-family="Monospaced" font-size="12" x="871.0" y="382.0">x24</text>
   <text fill="rgb(0, 0, 0)" font-family="Monospaced" font-size="16" font-weight="bold" x="930.0" y="383.0">S_DATA</text>
   <ellipse cx="848.0" cy="376.0" fill="rgb(0, 0, 0)" rx="2.0" ry="2.0" stroke="none" stroke-width="2.0"/>
   <path d="M633.0,621.0 A15.0,15.0 -90.0 0,0 633.0,651.0" fill="none" stroke="rgb(0, 0, 0)" stroke-width="2.0"/>
   <polyline fill="none" points="633,651 647,651 647,621 633,621" stroke="rgb(0, 0, 0)" stroke-linecap="square" stroke-width="2.0"/>
   <polygon fill="none" points="658,626 677,633 677,619" stroke="rgb(0, 0, 0)" stroke-linecap="square" stroke-width="2.0"/>
   <ellipse fill="none" rx="4.5" ry="4.5" stroke="rgb(0, 0, 0)" stroke-width="2.0" transform="translate(653.0 626.0) rotate(-180)"/>
   <ellipse cx="648.0" cy="626.0" fill="rgb(0, 0, 0)" rx="2.0" ry="2.0" stroke="none" stroke-width="2.0"/>
   <ellipse cx="678.0" cy="626.0" fill="rgb(0, 0, 0)" rx="2.0" ry="2.0" stroke="none" stroke-width="2.0"/>
   <polyline fill="none" points="158,366 197,366" stroke="rgb(0, 0, 0)" stroke-linecap="square" stroke-width="2.0"/>
   <polyline fill="none" points="198,366 198,405" stroke="rgb(0, 0, 0)" stroke-linecap="square" stroke-width="2.0"/>
   <polyline fill="none" points="198,406 159,406" stroke="rgb(0, 0, 0)" stroke-linecap="square" stroke-width="2.0"/>
   <polyline fill="none" points="158,406 158,367" stroke="rgb(0, 0, 0)" stroke-linecap="square" stroke-width="2.0"/>
   <ellipse cx="158.0" cy="376.0" fill="rgb(0, 0, 0)" rx="2.0" ry="2.0" stroke="none" stroke-width="1.0"/>
   <ellipse cx="158.0" cy="396.0" fill="rgb(0, 0, 0)" rx="2.0" ry="2.0" stroke="none" stroke-width="1.0"/>
   <ellipse cx="198.0" cy="376.0" fill="rgb(0, 0, 0)" rx="2.0" ry="2.0" stroke="none" stroke-width="1.0"/>
   <text fill="rgb(0, 0, 0)" font-family="SansSerif" font-size="12" x="185.0" y="382.0">&gt;</text>
   <ellipse cx="198.0" cy="386.0" fill="rgb(0, 0, 0)" rx="2.0" ry="2.0" stroke="none" stroke-width="1.0"/>
   <text fill="rgb(0, 0, 0)" font-family="SansSerif" font-size="12" x="185.0" y="392.0">=</text>
   <ellipse cx="198.0" cy="396.0" fill="rgb(0, 0, 0)" rx="2.0" ry="2.0" stroke="none" stroke-width="1.0"/>
   <text fill="rgb(0, 0, 0)" font-family="SansSerif" font-size="12" x="185.0" y="402.0">&lt;</text>
   <polyline fill="none" points="158,436 197,436" stroke="rgb(0, 0, 0)" stroke-linecap="square" stroke-width="2.0"/>
   <polyline fill="none" points="198,436 198,475" stroke="rgb(0, 0, 0)" stroke-linecap="square" stroke-width="2.0"/>
   <polyline fill="none" points="198,476 159,476" stroke="rgb(0, 0, 0)" stroke-linecap="square" stroke-width="2.0"/>
   <polyline fill="none" points="158,476 158,437" stroke="rgb(0, 0, 0)" stroke-linecap="square" stroke-width="2.0"/>
   <ellipse cx="158.0" cy="446.0" fill="rgb(0, 0, 0)" rx="2.0" ry="2.0" stroke="none" stroke-width="1.0"/>
   <ellipse cx="158.0" cy="466.0" fill="rgb(0, 0, 0)" rx="2.0" ry="2.0" stroke="none" stroke-width="1.0"/>
   <ellipse cx="198.0" cy="446.0" fill="rgb(0, 0, 0)" rx="2.0" ry="2.0" stroke="none" stroke-width="1.0"/>
   <text fill="rgb(0, 0, 0)" font-family="SansSerif" font-size="12" x="185.0" y="452.0">&gt;</text>
   <ellipse cx="198.0" cy="456.0" fill="rgb(0, 0, 0)" rx="2.0" ry="2.0" stroke="none" stroke-width="1.0"/>
   <text fill="rgb(0, 0, 0)" font-family="SansSerif" font-size="12" x="185.0" y="462.0">=</text>
   <ellipse cx="198.0" cy="466.0" fill="rgb(0, 0, 0)" rx="2.0" ry="2.0" stroke="none" stroke-width="1.0"/>
   <text fill="rgb(0, 0, 0)" font-family="SansSerif" font-size="12" x="185.0" y="472.0">&lt;</text>
   <polyline fill="none" points="158,506 197,506" stroke="rgb(0, 0, 0)" stroke-linecap="square" stroke-width="2.0"/>
   <polyline fill="none" points="198,506 198,545" stroke="rgb(0, 0, 0)" stroke-linecap="square" stroke-width="2.0"/>
   <polyline fill="none" points="198,546 159,546" stroke="rgb(0, 0, 0)" stroke-linecap="square" stroke-width="2.0"/>
   <polyline fill="none" points="158,546 158,507" stroke="rgb(0, 0, 0)" stroke-linecap="square" stroke-width="2.0"/>
   <ellipse cx="158.0" cy="516.0" fill="rgb(0, 0, 0)" rx="2.0" ry="2.0" stroke="none" stroke-width="1.0"/>
   <ellipse cx="158.0" cy="536.0" fill="rgb(0, 0, 0)" rx="2.0" ry="2.0" stroke="none" stroke-width="1.0"/>
   <ellipse cx="198.0" cy="516.0" fill="rgb(0, 0, 0)" rx="2.0" ry="2.0" stroke="none" stroke-width="1.0"/>
   <text fill="rgb(0, 0, 0)" font-family="SansSerif" font-size="12" x="185.0" y="522.0">&gt;</text>
   <ellipse cx="198.0" cy="526.0" fill="rgb(0, 0, 0)" rx="2.0" ry="2.0" stroke="none" stroke-width="1.0"/>
   <text fill="rgb(0, 0, 0)" font-family="SansSerif" font-size="12" x="185.0" y="532.0">=</text>
   <ellipse cx="198.0" cy="536.0" fill="rgb(0, 0, 0)" rx="2.0" ry="2.0" stroke="none" stroke-width="1.0"/>
   <text fill="rgb(0, 0, 0)" font-family="SansSerif" font-size="12" x="185.0" y="542.0">&lt;</text>
   <polyline fill="none" points="658,776 658,766 648,766 648,666 798,666 798,766 788,766 788,776" stroke="rgb(0, 0, 0)" stroke-linecap="square" stroke-width="2.0"/>
   <polyline fill="none" points="649,742 656,746 649,750" stroke="rgb(0, 0, 0)" stroke-linecap="square" stroke-width="2.0"/>
   <polyline fill="none" points="649,752 656,756 649,760" stroke="rgb(0, 0, 0)" stroke-linecap="square" stroke-width="2.0"/>
   <text fill="rgb(0, 0, 0)" font-family="SansSerif" font-size="12" x="708.0" y="677.0">CTR5</text>
   <polyline fill="none" points="628,686 648,686" stroke="rgb(0, 0, 0)" stroke-linecap="square" stroke-width="2.0"/>
   <text fill="rgb(0, 0, 0)" font-family="SansSerif" font-size="12" x="658.0" y="692.0">R</text>
   <ellipse cx="628.0" cy="686.0" fill="rgb(0, 0, 0)" rx="2.0" ry="2.0" stroke="none" stroke-width="2.0"/>
   <polyline fill="none" points="628,696 648,696" stroke="rgb(0, 0, 0)" stroke-linecap="square" stroke-width="2.0"/>
   <polyline fill="none" points="633,696 633,706 640,706" stroke="rgb(0, 0, 0)" stroke-linecap="square" stroke-width="2.0"/>
   <ellipse cx="644.0" cy="706.0" fill="none" rx="4.0" ry="4.0" stroke="rgb(0, 0, 0)" stroke-width="2.0"/>
   <ellipse cx="633.0" cy="696.0" fill="rgb(0, 0, 0)" rx="3.0" ry="3.0" stroke="none" stroke-width="2.0"/>
   <ellipse cx="628.0" cy="696.0" fill="rgb(0, 0, 0)" rx="2.0" ry="2.0" stroke="none" stroke-width="2.0"/>
   <text fill="rgb(0, 0, 0)" font-family="SansSerif" font-size="12" x="658.0" y="712.0">M2 [count]</text>
   <text fill="rgb(0, 0, 0)" font-family="SansSerif" font-size="12" x="658.0" y="702.0">M1 [load]</text>
   <polyline fill="none" points="628,716 648,716" stroke="rgb(0, 0, 0)" stroke-linecap="square" stroke-width="2.0"/>
   <polyline fill="none" points="633,716 633,726 640,726" stroke="rgb(0, 0, 0)" stroke-linecap="square" stroke-width="2.0"/>
   <ellipse cx="644.0" cy="726.0" fill="none" rx="4.0" ry="4.0" stroke="rgb(0, 0, 0)" stroke-width="2.0"/>
   <ellipse cx="633.0" cy="716.0" fill="rgb(0, 0, 0)" rx="3.0" ry="3.0" stroke="none" stroke-width="2.0"/>
   <text fill="rgb(0, 0, 0)" font-family="SansSerif" font-size="12" x="658.0" y="722.0">M3 [up]</text>
   <text fill="rgb(0, 0, 0)" font-family="SansSerif" font-size="12" x="658.0" y="732.0">M4 [down]</text>
   <ellipse cx="628.0" cy="716.0" fill="rgb(0, 0, 0)" rx="2.0" ry="2.0" stroke="none" stroke-width="2.0"/>
   <polyline fill="none" points="628,736 648,736" stroke="rgb(0, 0, 0)" stroke-linecap="square" stroke-width="2.0"/>
   <text fill="rgb(0, 0, 0)" font-family="SansSerif" font-size="12" x="658.0" y="742.0">G5</text>
   <ellipse cx="628.0" cy="736.0" fill="rgb(0, 0, 0)" rx="2.0" ry="2.0" stroke="none" stroke-width="2.0"/>
   <polyline fill="none" points="628,746 648,746" stroke="rgb(0, 0, 0)" stroke-linecap="square" stroke-width="2.0"/>
   <polyline fill="none" points="633,746 633,756 648,756" stroke="rgb(0, 0, 0)" stroke-linecap="square" stroke-width="2.0"/>
   <ellipse cx="633.0" cy="746.0" fill="rgb(0, 0, 0)" rx="3.0" ry="3.0" stroke="none" stroke-width="2.0"/>
   <text fill="rgb(0, 0, 0)" font-family="SansSerif" font-size="12" x="658.0" y="752.0">2,3,5+/C6</text>
   <text fill="rgb(0, 0, 0)" font-family="SansSerif" font-size="12" x="658.0" y="762.0">2,4,5-</text>
   <ellipse cx="628.0" cy="746.0" fill="rgb(0, 0, 0)" rx="2.0" ry="2.0" stroke="none" stroke-width="2.0"/>
   <polyline fill="none" points="798,716 818,716" stroke="rgb(0, 0, 0)" stroke-linecap="square" stroke-width="2.0"/>
   <polyline fill="none" points="813,716 813,726 798,726" stroke="rgb(0, 0, 0)" stroke-linecap="square" stroke-width="2.0"/>
   <ellipse cx="813.0" cy="716.0" fill="rgb(0, 0, 0)" rx="3.0" ry="3.0" stroke="none" stroke-width="2.0"/>
   <text fill="rgb(0, 0, 0)" font-family="SansSerif" font-size="12" x="733.0" y="722.0">3CT=0x1F</text>
   <text fill="rgb(0, 0, 0)" font-family="SansSerif" font-size="12" x="754.0" y="732.0">4CT=0</text>
   <ellipse cx="818.0" cy="716.0" fill="rgb(0, 0, 0)" rx="2.0" ry="2.0" stroke="none" stroke-width="2.0"/>
   <polyline fill="none" points="648,776 797,776" stroke="rgb(0, 0, 0)" stroke-linecap="square" stroke-width="2.0"/>
   <polyline fill="none" points="798,776 798,795" stroke="rgb(0, 0, 0)" stroke-linecap="square" stroke-width="2.0"/>
   <polyline fill="none" points="633,781 638,786 648,786" stroke="rgb(0, 0, 0)" stroke-linecap="square" stroke-width="2.0"/>
   <polyline fill="none" points="798,786 808,786 813,781" stroke="rgb(0, 0, 0)" stroke-linecap="square" stroke-width="2.0"/>
   <text fill="rgb(0, 0, 0)" font-family="SansSerif" font-size="7" x="804.0" y="784.0">0</text>
   <text fill="rgb(0, 0, 0)" font-family="SansSerif" font-size="7" x="638.0" y="784.0">0</text>
   <text fill="rgb(0, 0, 0)" font-family="SansSerif" font-size="12" x="649.0" y="792.0">1,6D</text>
   <ellipse cx="628.0" cy="776.0" fill="rgb(0, 0, 0)" rx="2.0" ry="2.0" stroke="none" stroke-width="4.0"/>
   <ellipse cx="818.0" cy="776.0" fill="rgb(0, 0, 0)" rx="2.0" ry="2.0" stroke="none" stroke-width="4.0"/>
   <polyline fill="none" points="648,777 648,796 797,796" stroke="rgb(0, 0, 0)" stroke-linecap="square" stroke-width="2.0"/>
   <polyline fill="none" points="649,796 798,796 798,815" stroke="rgb(0, 0, 0)" stroke-linecap="square" stroke-width="2.0"/>
   <polyline fill="none" points="633,801 638,806 648,806" stroke="rgb(0, 0, 0)" stroke-linecap="square" stroke-width="2.0"/>
   <polyline fill="none" points="798,806 808,806 813,801" stroke="rgb(0, 0, 0)" stroke-linecap="square" stroke-width="2.0"/>
   <text fill="rgb(0, 0, 0)" font-family="SansSerif" font-size="7" x="804.0" y="804.0">1</text>
   <text fill="rgb(0, 0, 0)" font-family="SansSerif" font-size="7" x="638.0" y="804.0">1</text>
   <text fill="rgb(0, 0, 0)" font-family="SansSerif" font-size="12" x="649.0" y="812.0">1,6D</text>
   <polyline fill="none" points="648,797 648,816 797,816" stroke="rgb(0, 0, 0)" stroke-linecap="square" stroke-width="2.0"/>
   <polyline fill="none" points="649,816 798,816 798,835" stroke="rgb(0, 0, 0)" stroke-linecap="square" stroke-width="2.0"/>
   <polyline fill="none" points="633,821 638,826 648,826" stroke="rgb(0, 0, 0)" stroke-linecap="square" stroke-width="2.0"/>
   <polyline fill="none" points="798,826 808,826 813,821" stroke="rgb(0, 0, 0)" stroke-linecap="square" stroke-width="2.0"/>
   <text fill="rgb(0, 0, 0)" font-family="SansSerif" font-size="7" x="804.0" y="824.0">2</text>
   <text fill="rgb(0, 0, 0)" font-family="SansSerif" font-size="7" x="638.0" y="824.0">2</text>
   <text fill="rgb(0, 0, 0)" font-family="SansSerif" font-size="12" x="649.0" y="832.0">1,6D</text>
   <polyline fill="none" points="648,817 648,836 797,836" stroke="rgb(0, 0, 0)" stroke-linecap="square" stroke-width="2.0"/>
   <polyline fill="none" points="649,836 798,836 798,855" stroke="rgb(0, 0, 0)" stroke-linecap="square" stroke-width="2.0"/>
   <polyline fill="none" points="633,841 638,846 648,846" stroke="rgb(0, 0, 0)" stroke-linecap="square" stroke-width="2.0"/>
   <polyline fill="none" points="798,846 808,846 813,841" stroke="rgb(0, 0, 0)" stroke-linecap="square" stroke-width="2.0"/>
   <text fill="rgb(0, 0, 0)" font-family="SansSerif" font-size="7" x="804.0" y="844.0">3</text>
   <text fill="rgb(0, 0, 0)" font-family="SansSerif" font-size="7" x="638.0" y="844.0">3</text>
   <text fill="rgb(0, 0, 0)" font-family="SansSerif" font-size="12" x="649.0" y="852.0">1,6D</text>
   <polyline fill="none" points="648,837 648,856 797,856" stroke="rgb(0, 0, 0)" stroke-linecap="square" stroke-width="2.0"/>
   <polyline fill="none" points="649,856 798,856 798,875" stroke="rgb(0, 0, 0)" stroke-linecap="square" stroke-width="2.0"/>
   <polyline fill="none" points="798,876 649,876" stroke="rgb(0, 0, 0)" stroke-linecap="square" stroke-width="2.0"/>
   <polyline fill="none" points="648,876 648,857" stroke="rgb(0, 0, 0)" stroke-linecap="square" stroke-width="2.0"/>
   <polyline fill="none" points="633,861 638,866 648,866" stroke="rgb(0, 0, 0)" stroke-linecap="square" stroke-width="2.0"/>
   <polyline fill="none" points="798,866 808,866 813,861" stroke="rgb(0, 0, 0)" stroke-linecap="square" stroke-width="2.0"/>
   <text fill="rgb(0, 0, 0)" font-family="SansSerif" font-size="7" x="804.0" y="864.0">4</text>
   <text fill="rgb(0, 0, 0)" font-family="SansSerif" font-size="7" x="638.0" y="864.0">4</text>
   <text fill="rgb(0, 0, 0)" font-family="SansSerif" font-size="12" x="649.0" y="872.0">1,6D</text>
   <polyline fill="none" points="628,776 633,781 633,796 633,816 633,836 633,856 633,861" stroke="rgb(0, 0, 0)" stroke-linecap="square" stroke-width="4.0"/>
   <polyline fill="none" points="848,316 828,316 828,776 818,776 813,781 813,796 813,816 813,836 813,856 813,861" stroke="rgb(0, 0, 0)" stroke-linecap="square" stroke-width="4.0"/>
   <text fill="rgb(0, 0, 0)" font-family="SansSerif" font-size="16" font-weight="bold" x="966.0" y="663.0">YCOUNT</text>
   <polyline fill="none" points="938,776 938,766 928,766 928,666 1078,666 1078,766 1068,766 1068,776" stroke="rgb(0, 0, 0)" stroke-linecap="square" stroke-width="2.0"/>
   <polyline fill="none" points="929,742 936,746 929,750" stroke="rgb(0, 0, 0)" stroke-linecap="square" stroke-width="2.0"/>
   <polyline fill="none" points="929,752 936,756 929,760" stroke="rgb(0, 0, 0)" stroke-linecap="square" stroke-width="2.0"/>
   <text fill="rgb(0, 0, 0)" font-family="SansSerif" font-size="12" x="988.0" y="677.0">CTR5</text>
   <polyline fill="none" points="908,686 928,686" stroke="rgb(0, 0, 0)" stroke-linecap="square" stroke-width="2.0"/>
   <text fill="rgb(0, 0, 0)" font-family="SansSerif" font-size="12" x="938.0" y="692.0">R</text>
   <ellipse cx="908.0" cy="686.0" fill="rgb(0, 0, 0)" rx="2.0" ry="2.0" stroke="none" stroke-width="2.0"/>
   <polyline fill="none" points="908,696 928,696" stroke="rgb(0, 0, 0)" stroke-linecap="square" stroke-width="2.0"/>
   <polyline fill="none" points="913,696 913,706 920,706" stroke="rgb(0, 0, 0)" stroke-linecap="square" stroke-width="2.0"/>
   <ellipse cx="924.0" cy="706.0" fill="none" rx="4.0" ry="4.0" stroke="rgb(0, 0, 0)" stroke-width="2.0"/>
   <ellipse cx="913.0" cy="696.0" fill="rgb(0, 0, 0)" rx="3.0" ry="3.0" stroke="none" stroke-width="2.0"/>
   <ellipse cx="908.0" cy="696.0" fill="rgb(0, 0, 0)" rx="2.0" ry="2.0" stroke="none" stroke-width="2.0"/>
   <text fill="rgb(0, 0, 0)" font-family="SansSerif" font-size="12" x="938.0" y="712.0">M2 [count]</text>
   <text fill="rgb(0, 0, 0)" font-family="SansSerif" font-size="12" x="938.0" y="702.0">M1 [load]</text>
   <polyline fill="none" points="908,716 928,716" stroke="rgb(0, 0, 0)" stroke-linecap="square" stroke-width="2.0"/>
   <polyline fill="none" points="913,716 913,726 920,726" stroke="rgb(0, 0, 0)" stroke-linecap="square" stroke-width="2.0"/>
   <ellipse cx="924.0" cy="726.0" fill="none" rx="4.0" ry="4.0" stroke="rgb(0, 0, 0)" stroke-width="2.0"/>
   <ellipse cx="913.0" cy="716.0" fill="rgb(0, 0, 0)" rx="3.0" ry="3.0" stroke="none" stroke-width="2.0"/>
   <text fill="rgb(0, 0, 0)" font-family="SansSerif" font-size="12" x="938.0" y="722.0">M3 [up]</text>
   <text fill="rgb(0, 0, 0)" font-family="SansSerif" font-size="12" x="938.0" y="732.0">M4 [down]</text>
   <ellipse cx="908.0" cy="716.0" fill="rgb(0, 0, 0)" rx="2.0" ry="2.0" stroke="none" stroke-width="2.0"/>
   <polyline fill="none" points="908,736 928,736" stroke="rgb(0, 0, 0)" stroke-linecap="square" stroke-width="2.0"/>
   <text fill="rgb(0, 0, 0)" font-family="SansSerif" font-size="12" x="938.0" y="742.0">G5</text>
   <ellipse cx="908.0" cy="736.0" fill="rgb(0, 0, 0)" rx="2.0" ry="2.0" stroke="none" stroke-width="2.0"/>
   <polyline fill="none" points="908,746 920,746" stroke="rgb(0, 0, 0)" stroke-linecap="square" stroke-width="2.0"/>
   <polyline fill="none" points="913,746 913,756 920,756" stroke="rgb(0, 0, 0)" stroke-linecap="square" stroke-width="2.0"/>
   <ellipse cx="913.0" cy="746.0" fill="rgb(0, 0, 0)" rx="3.0" ry="3.0" stroke="none" stroke-width="2.0"/>
   <ellipse cx="924.0" cy="746.0" fill="none" rx="4.0" ry="4.0" stroke="rgb(0, 0, 0)" stroke-width="2.0"/>
   <ellipse cx="924.0" cy="756.0" fill="none" rx="4.0" ry="4.0" stroke="rgb(0, 0, 0)" stroke-width="2.0"/>
   <text fill="rgb(0, 0, 0)" font-family="SansSerif" font-size="12" x="938.0" y="752.0">2,3,5+/C6</text>
   <text fill="rgb(0, 0, 0)" font-family="SansSerif" font-size="12" x="938.0" y="762.0">2,4,5-</text>
   <ellipse cx="908.0" cy="746.0" fill="rgb(0, 0, 0)" rx="2.0" ry="2.0" stroke="none" stroke-width="2.0"/>
   <polyline fill="none" points="1078,716 1098,716" stroke="rgb(0, 0, 0)" stroke-linecap="square" stroke-width="2.0"/>
   <polyline fill="none" points="1093,716 1093,726 1078,726" stroke="rgb(0, 0, 0)" stroke-linecap="square" stroke-width="2.0"/>
   <ellipse cx="1093.0" cy="716.0" fill="rgb(0, 0, 0)" rx="3.0" ry="3.0" stroke="none" stroke-width="2.0"/>
   <text fill="rgb(0, 0, 0)" font-family="SansSerif" font-size="12" x="1013.0" y="722.0">3CT=0x1F</text>
   <text fill="rgb(0, 0, 0)" font-family="SansSerif" font-size="12" x="1034.0" y="732.0">4CT=0</text>
   <ellipse cx="1098.0" cy="716.0" fill="rgb(0, 0, 0)" rx="2.0" ry="2.0" stroke="none" stroke-width="2.0"/>
   <polyline fill="none" points="928,776 1077,776" stroke="rgb(0, 0, 0)" stroke-linecap="square" stroke-width="2.0"/>
   <polyline fill="none" points="1078,776 1078,795" stroke="rgb(0, 0, 0)" stroke-linecap="square" stroke-width="2.0"/>
   <polyline fill="none" points="913,781 918,786 928,786" stroke="rgb(0, 0, 0)" stroke-linecap="square" stroke-width="2.0"/>
   <polyline fill="none" points="1078,786 1088,786 1093,781" stroke="rgb(0, 0, 0)" stroke-linecap="square" stroke-width="2.0"/>
   <text fill="rgb(0, 0, 0)" font-family="SansSerif" font-size="7" x="1084.0" y="784.0">0</text>
   <text fill="rgb(0, 0, 0)" font-family="SansSerif" font-size="7" x="918.0" y="784.0">0</text>
   <text fill="rgb(0, 0, 0)" font-family="SansSerif" font-size="12" x="929.0" y="792.0">1,6D</text>
   <ellipse cx="908.0" cy="776.0" fill="rgb(0, 0, 0)" rx="2.0" ry="2.0" stroke="none" stroke-width="4.0"/>
   <ellipse cx="1098.0" cy="776.0" fill="rgb(0, 0, 0)" rx="2.0" ry="2.0" stroke="none" stroke-width="4.0"/>
   <polyline fill="none" points="928,777 928,796 1077,796" stroke="rgb(0, 0, 0)" stroke-linecap="square" stroke-width="2.0"/>
   <polyline fill="none" points="929,796 1078,796 1078,815" stroke="rgb(0, 0, 0)" stroke-linecap="square" stroke-width="2.0"/>
   <polyline fill="none" points="913,801 918,806 928,806" stroke="rgb(0, 0, 0)" stroke-linecap="square" stroke-width="2.0"/>
   <polyline fill="none" points="1078,806 1088,806 1093,801" stroke="rgb(0, 0, 0)" stroke-linecap="square" stroke-width="2.0"/>
   <text fill="rgb(0, 0, 0)" font-family="SansSerif" font-size="7" x="1084.0" y="804.0">1</text>
   <text fill="rgb(0, 0, 0)" font-family="SansSerif" font-size="7" x="918.0" y="804.0">1</text>
   <text fill="rgb(0, 0, 0)" font-family="SansSerif" font-size="12" x="929.0" y="812.0">1,6D</text>
   <polyline fill="none" points="928,797 928,816 1077,816" stroke="rgb(0, 0, 0)" stroke-linecap="square" stroke-width="2.0"/>
   <polyline fill="none" points="929,816 1078,816 1078,835" stroke="rgb(0, 0, 0)" stroke-linecap="square" stroke-width="2.0"/>
   <polyline fill="none" points="913,821 918,826 928,826" stroke="rgb(0, 0, 0)" stroke-linecap="square" stroke-width="2.0"/>
   <polyline fill="none" points="1078,826 1088,826 1093,821" stroke="rgb(0, 0, 0)" stroke-linecap="square" stroke-width="2.0"/>
   <text fill="rgb(0, 0, 0)" font-family="SansSerif" font-size="7" x="1084.0" y="824.0">2</text>
   <text fill="rgb(0, 0, 0)" font-family="SansSerif" font-size="7" x="918.0" y="824.0">2</text>
   <text fill="rgb(0, 0, 0)" font-family="SansSerif" font-size="12" x="929.0" y="832.0">1,6D</text>
   <polyline fill="none" points="928,817 928,836 1077,836" stroke="rgb(0, 0, 0)" stroke-linecap="square" stroke-width="2.0"/>
   <polyline fill="none" points="929,836 1078,836 1078,855" stroke="rgb(0, 0, 0)" stroke-linecap="square" stroke-width="2.0"/>
   <polyline fill="none" points="913,841 918,846 928,846" stroke="rgb(0, 0, 0)" stroke-linecap="square" stroke-width="2.0"/>
   <polyline fill="none" points="1078,846 1088,846 1093,841" stroke="rgb(0, 0, 0)" stroke-linecap="square" stroke-width="2.0"/>
   <text fill="rgb(0, 0, 0)" font-family="SansSerif" font-size="7" x="1084.0" y="844.0">3</text>
   <text fill="rgb(0, 0, 0)" font-family="SansSerif" font-size="7" x="918.0" y="844.0">3</text>
   <text fill="rgb(0, 0, 0)" font-family="SansSerif" font-size="12" x="929.0" y="852.0">1,6D</text>
   <polyline fill="none" points="928,837 928,856 1077,856" stroke="rgb(0, 0, 0)" stroke-linecap="square" stroke-width="2.0"/>
   <polyline fill="none" points="929,856 1078,856 1078,875" stroke="rgb(0, 0, 0)" stroke-linecap="square" stroke-width="2.0"/>
   <polyline fill="none" points="1078,876 929,876" stroke="rgb(0, 0, 0)" stroke-linecap="square" stroke-width="2.0"/>
   <polyline fill="none" points="928,876 928,857" stroke="rgb(0, 0, 0)" stroke-linecap="square" stroke-width="2.0"/>
   <polyline fill="none" points="913,861 918,866 928,866" stroke="rgb(0, 0, 0)" stroke-linecap="square" stroke-width="2.0"/>
   <polyline fill="none" points="1078,866 1088,866 1093,861" stroke="rgb(0, 0, 0)" stroke-linecap="square" stroke-width="2.0"/>
   <text fill="rgb(0, 0, 0)" font-family="SansSerif" font-size="7" x="1084.0" y="864.0">4</text>
   <text fill="rgb(0, 0, 0)" font-family="SansSerif" font-size="7" x="918.0" y="864.0">4</text>
   <text fill="rgb(0, 0, 0)" font-family="SansSerif" font-size="12" x="929.0" y="872.0">1,6D</text>
   <polyline fill="none" points="908,776 913,781 913,796 913,816 913,836 913,856 913,861" stroke="rgb(0, 0, 0)" stroke-linecap="square" stroke-width="4.0"/>
   <polyline fill="none" points="848,346 838,346 838,766 1098,766 1098,776 1093,781 1093,796 1093,816 1093,836 1093,856 1093,861" stroke="rgb(0, 0, 0)" stroke-linecap="square" stroke-width="4.0"/>
</svg>
