<?xml version="1.0" encoding="UTF-8" standalone="no"?>
<svg xmlns="http://www.w3.org/2000/svg" version="1.1" viewBox="0 0 910 552">
   <polyline fill="none" points="715,106 745,106" stroke="rgb(0, 0, 0)" stroke-linecap="square" stroke-width="4.0"/>
   <polyline fill="none" points="555,386 565,386 565,266" stroke="rgb(0, 0, 0)" stroke-linecap="square" stroke-width="4.0"/>
   <polyline fill="none" points="745,246 565,246 565,236 745,236" stroke="rgb(0, 0, 0)" stroke-linecap="square" stroke-width="4.0"/>
   <polyline fill="none" points="745,266 565,266 565,256 745,256" stroke="rgb(0, 0, 0)" stroke-linecap="square" stroke-width="4.0"/>
   <polyline fill="none" points="95,106 95,176 95,246 335,246" stroke="rgb(0, 0, 0)" stroke-linecap="square" stroke-width="4.0"/>
   <polyline fill="none" points="335,86 105,86 105,156 105,226" stroke="rgb(0, 0, 0)" stroke-linecap="square" stroke-width="4.0"/>
   <polyline fill="none" points="745,66 735,66 735,76 735,86" stroke="rgb(0, 0, 0)" stroke-linecap="square" stroke-width="4.0"/>
   <polyline fill="none" points="745,26 735,26 735,36 735,46" stroke="rgb(0, 0, 0)" stroke-linecap="square" stroke-width="4.0"/>
   <polyline fill="none" points="745,46 735,46 735,56 735,66" stroke="rgb(0, 0, 0)" stroke-linecap="square" stroke-width="4.0"/>
   <polyline fill="none" points="745,146 735,146 735,156 735,166" stroke="rgb(0, 0, 0)" stroke-linecap="square" stroke-width="4.0"/>
   <polyline fill="none" points="745,166 735,166 735,176 735,186" stroke="rgb(0, 0, 0)" stroke-linecap="square" stroke-width="4.0"/>
   <polyline fill="none" points="745,186 735,186 735,196 735,206" stroke="rgb(0, 0, 0)" stroke-linecap="square" stroke-width="4.0"/>
   <polyline fill="none" points="745,206 735,206 735,216 735,226 745,226" stroke="rgb(0, 0, 0)" stroke-linecap="square" stroke-width="4.0"/>
   <polyline fill="none" points="555,16 735,16 735,26" stroke="rgb(0, 0, 0)" stroke-linecap="square" stroke-width="4.0"/>
   <polyline fill="none" points="565,246 565,256" stroke="rgb(0, 0, 0)" stroke-linecap="square" stroke-width="4.0"/>
   <polyline fill="none" points="95,246 95,316 95,416 95,436" stroke="rgb(0, 0, 0)" stroke-linecap="square" stroke-width="4.0"/>
   <polyline fill="none" points="335,386 105,386 105,406" stroke="rgb(0, 0, 0)" stroke-linecap="square" stroke-width="4.0"/>
   <polyline fill="none" points="335,106 95,106 95,36 335,36" stroke="rgb(0, 0, 0)" stroke-linecap="square" stroke-width="4.0"/>
   <polyline fill="none" points="95,176 335,176" stroke="rgb(0, 0, 0)" stroke-linecap="square" stroke-width="4.0"/>
   <polyline fill="none" points="95,316 335,316" stroke="rgb(0, 0, 0)" stroke-linecap="square" stroke-width="4.0"/>
   <polyline fill="none" points="95,416 335,416 335,406" stroke="rgb(0, 0, 0)" stroke-linecap="square" stroke-width="4.0"/>
   <polyline fill="none" points="555,226 565,226 565,146 735,146" stroke="rgb(0, 0, 0)" stroke-linecap="square" stroke-width="4.0"/>
   <polyline fill="none" points="765,346 765,366 125,366" stroke="rgb(0, 0, 0)" stroke-linecap="square" stroke-width="4.0"/>
   <polyline fill="none" points="105,156 335,156" stroke="rgb(0, 0, 0)" stroke-linecap="square" stroke-width="4.0"/>
   <polyline fill="none" points="335,226 105,226 105,296 105,386" stroke="rgb(0, 0, 0)" stroke-linecap="square" stroke-width="4.0"/>
   <polyline fill="none" points="105,296 335,296" stroke="rgb(0, 0, 0)" stroke-linecap="square" stroke-width="4.0"/>
   <polyline fill="none" points="105,86 105,16 335,16" stroke="rgb(0, 0, 0)" stroke-linecap="square" stroke-width="4.0"/>
   <polyline fill="none" points="745,136 555,136 555,156" stroke="rgb(0, 0, 0)" stroke-linecap="square" stroke-width="4.0"/>
   <polyline fill="none" points="745,276 555,276 555,296" stroke="rgb(0, 0, 0)" stroke-linecap="square" stroke-width="4.0"/>
   <polyline fill="none" points="555,466 575,466 575,286 745,286" stroke="rgb(0, 0, 0)" stroke-linecap="square" stroke-width="4.0"/>
   <polyline fill="none" points="555,86 715,86 715,106 715,116 715,126 745,126" stroke="rgb(0, 0, 0)" stroke-linecap="square" stroke-width="4.0"/>
   <polyline fill="none" points="715,116 745,116" stroke="rgb(0, 0, 0)" stroke-linecap="square" stroke-width="4.0"/>
   <polyline fill="none" points="785,186 815,186" stroke="rgb(0, 0, 0)" stroke-linecap="square" stroke-width="4.0"/>
   <polyline fill="none" points="735,36 745,36" stroke="rgb(0, 0, 0)" stroke-linecap="square" stroke-width="4.0"/>
   <polyline fill="none" points="735,56 745,56" stroke="rgb(0, 0, 0)" stroke-linecap="square" stroke-width="4.0"/>
   <polyline fill="none" points="735,76 745,76" stroke="rgb(0, 0, 0)" stroke-linecap="square" stroke-width="4.0"/>
   <polyline fill="none" points="745,86 735,86 735,96 745,96" stroke="rgb(0, 0, 0)" stroke-linecap="square" stroke-width="4.0"/>
   <polyline fill="none" points="735,156 745,156" stroke="rgb(0, 0, 0)" stroke-linecap="square" stroke-width="4.0"/>
   <polyline fill="none" points="735,176 745,176" stroke="rgb(0, 0, 0)" stroke-linecap="square" stroke-width="4.0"/>
   <polyline fill="none" points="735,196 745,196" stroke="rgb(0, 0, 0)" stroke-linecap="square" stroke-width="4.0"/>
   <polyline fill="none" points="735,216 745,216" stroke="rgb(0, 0, 0)" stroke-linecap="square" stroke-width="4.0"/>
   <ellipse cx="95.0" cy="246.0" fill="rgb(0, 0, 0)" rx="6.0" ry="6.0" stroke="none" stroke-width="4.0"/>
   <ellipse cx="735.0" cy="146.0" fill="rgb(0, 0, 0)" rx="6.0" ry="6.0" stroke="none" stroke-width="4.0"/>
   <ellipse cx="105.0" cy="226.0" fill="rgb(0, 0, 0)" rx="6.0" ry="6.0" stroke="none" stroke-width="4.0"/>
   <ellipse cx="735.0" cy="156.0" fill="rgb(0, 0, 0)" rx="6.0" ry="6.0" stroke="none" stroke-width="4.0"/>
   <ellipse cx="735.0" cy="166.0" fill="rgb(0, 0, 0)" rx="6.0" ry="6.0" stroke="none" stroke-width="4.0"/>
   <ellipse cx="735.0" cy="176.0" fill="rgb(0, 0, 0)" rx="6.0" ry="6.0" stroke="none" stroke-width="4.0"/>
   <ellipse cx="735.0" cy="186.0" fill="rgb(0, 0, 0)" rx="6.0" ry="6.0" stroke="none" stroke-width="4.0"/>
   <ellipse cx="95.0" cy="316.0" fill="rgb(0, 0, 0)" rx="6.0" ry="6.0" stroke="none" stroke-width="4.0"/>
   <ellipse cx="735.0" cy="196.0" fill="rgb(0, 0, 0)" rx="6.0" ry="6.0" stroke="none" stroke-width="4.0"/>
   <ellipse cx="735.0" cy="206.0" fill="rgb(0, 0, 0)" rx="6.0" ry="6.0" stroke="none" stroke-width="4.0"/>
   <ellipse cx="735.0" cy="216.0" fill="rgb(0, 0, 0)" rx="6.0" ry="6.0" stroke="none" stroke-width="4.0"/>
   <ellipse cx="105.0" cy="296.0" fill="rgb(0, 0, 0)" rx="6.0" ry="6.0" stroke="none" stroke-width="4.0"/>
   <ellipse cx="95.0" cy="106.0" fill="rgb(0, 0, 0)" rx="6.0" ry="6.0" stroke="none" stroke-width="4.0"/>
   <ellipse cx="715.0" cy="106.0" fill="rgb(0, 0, 0)" rx="6.0" ry="6.0" stroke="none" stroke-width="4.0"/>
   <ellipse cx="715.0" cy="116.0" fill="rgb(0, 0, 0)" rx="6.0" ry="6.0" stroke="none" stroke-width="4.0"/>
   <ellipse cx="105.0" cy="86.0" fill="rgb(0, 0, 0)" rx="6.0" ry="6.0" stroke="none" stroke-width="4.0"/>
   <ellipse cx="735.0" cy="26.0" fill="rgb(0, 0, 0)" rx="6.0" ry="6.0" stroke="none" stroke-width="4.0"/>
   <ellipse cx="95.0" cy="416.0" fill="rgb(0, 0, 0)" rx="6.0" ry="6.0" stroke="none" stroke-width="4.0"/>
   <ellipse cx="735.0" cy="36.0" fill="rgb(0, 0, 0)" rx="6.0" ry="6.0" stroke="none" stroke-width="4.0"/>
   <ellipse cx="735.0" cy="46.0" fill="rgb(0, 0, 0)" rx="6.0" ry="6.0" stroke="none" stroke-width="4.0"/>
   <ellipse cx="95.0" cy="176.0" fill="rgb(0, 0, 0)" rx="6.0" ry="6.0" stroke="none" stroke-width="4.0"/>
   <ellipse cx="95.0" cy="436.0" fill="rgb(0, 0, 0)" rx="6.0" ry="6.0" stroke="none" stroke-width="4.0"/>
   <ellipse cx="105.0" cy="386.0" fill="rgb(0, 0, 0)" rx="6.0" ry="6.0" stroke="none" stroke-width="4.0"/>
   <ellipse cx="735.0" cy="56.0" fill="rgb(0, 0, 0)" rx="6.0" ry="6.0" stroke="none" stroke-width="4.0"/>
   <ellipse cx="735.0" cy="66.0" fill="rgb(0, 0, 0)" rx="6.0" ry="6.0" stroke="none" stroke-width="4.0"/>
   <ellipse cx="105.0" cy="406.0" fill="rgb(0, 0, 0)" rx="6.0" ry="6.0" stroke="none" stroke-width="4.0"/>
   <ellipse cx="735.0" cy="76.0" fill="rgb(0, 0, 0)" rx="6.0" ry="6.0" stroke="none" stroke-width="4.0"/>
   <ellipse cx="105.0" cy="156.0" fill="rgb(0, 0, 0)" rx="6.0" ry="6.0" stroke="none" stroke-width="4.0"/>
   <ellipse cx="735.0" cy="86.0" fill="rgb(0, 0, 0)" rx="6.0" ry="6.0" stroke="none" stroke-width="4.0"/>
   <ellipse cx="565.0" cy="246.0" fill="rgb(0, 0, 0)" rx="6.0" ry="6.0" stroke="none" stroke-width="4.0"/>
   <ellipse cx="565.0" cy="256.0" fill="rgb(0, 0, 0)" rx="6.0" ry="6.0" stroke="none" stroke-width="4.0"/>
   <ellipse cx="565.0" cy="266.0" fill="rgb(0, 0, 0)" rx="6.0" ry="6.0" stroke="none" stroke-width="4.0"/>
   <polyline fill="none" points="819,186 818,186" stroke="rgb(0, 0, 0)" stroke-linecap="square" stroke-width="4.0"/>
   <polygon fill="none" points="895,177 905,186 895,195 821,195 821,177" stroke="rgb(0, 0, 0)" stroke-linecap="square" stroke-width="2.0"/>
   <text fill="rgb(0, 0, 0)" font-family="Monospaced" font-size="12" x="843.0" y="192.0">x29</text>
   <ellipse cx="815.0" cy="186.0" fill="rgb(0, 0, 0)" rx="2.0" ry="2.0" stroke="none" stroke-width="2.0"/>
   <polyline fill="none" points="52,436 55,436 95,436 95,546" stroke="rgb(0, 0, 0)" stroke-linecap="square" stroke-width="4.0"/>
   <polygon fill="none" points="40,445 50,436 40,427 6,427 6,445" stroke="rgb(0, 0, 0)" stroke-linecap="square" stroke-width="2.0"/>
   <text fill="rgb(0, 0, 0)" font-family="Monospaced" font-size="12" x="16.0" y="442.0">x8</text>
   <ellipse cx="55.0" cy="436.0" fill="rgb(0, 0, 0)" rx="2.0" ry="2.0" stroke="none" stroke-width="2.0"/>
   <polyline fill="none" points="62,406 65,406 105,406 105,546" stroke="rgb(0, 0, 0)" stroke-linecap="square" stroke-width="4.0"/>
   <polygon fill="none" points="50,415 60,406 50,397 6,397 6,415" stroke="rgb(0, 0, 0)" stroke-linecap="square" stroke-width="2.0"/>
   <text fill="rgb(0, 0, 0)" font-family="Monospaced" font-size="12" x="18.0" y="412.0">x16</text>
   <ellipse cx="65.0" cy="406.0" fill="rgb(0, 0, 0)" rx="2.0" ry="2.0" stroke="none" stroke-width="2.0"/>
   <polyline fill="none" points="125,366 111,366" stroke="rgb(0, 0, 0)" stroke-linecap="square" stroke-width="3.0"/>
   <polyline fill="none" points="125,396 111,396" stroke="rgb(0, 0, 0)" stroke-linecap="square" stroke-width="3.0"/>
   <polyline fill="none" points="111,367 111,400 106,405" stroke="rgb(0, 0, 0)" stroke-linecap="square" stroke-width="5.0"/>
   <text fill="rgb(0, 0, 0)" font-family="SansSerif" font-size="7" x="114.0" y="373.0">4-0</text>
   <text fill="rgb(0, 0, 0)" font-family="SansSerif" font-size="7" x="114.0" y="403.0">15-5</text>
   <ellipse cx="105.0" cy="406.0" fill="rgb(0, 0, 0)" rx="2.0" ry="2.0" stroke="none" stroke-width="5.0"/>
   <ellipse cx="125.0" cy="366.0" fill="rgb(0, 0, 0)" rx="2.0" ry="2.0" stroke="none" stroke-width="5.0"/>
   <ellipse cx="125.0" cy="396.0" fill="rgb(0, 0, 0)" rx="2.0" ry="2.0" stroke="none" stroke-width="5.0"/>
   <ellipse cx="765.0" cy="340.0" fill="rgb(192, 192, 192)" rx="3.0" ry="3.0" stroke="none" stroke-width="1.0"/>
   <text fill="rgb(128, 128, 128)" font-family="SansSerif" font-size="12" x="748.0" y="31.0">0</text>
   <polygon fill="none" points="745,16 785,36 785,336 745,356" stroke="rgb(0, 0, 0)" stroke-linecap="square" stroke-width="2.0"/>
   <text fill="rgb(0, 0, 0)" font-family="SansSerif" font-size="12" x="752.0" y="192.0">MUX</text>
   <ellipse cx="745.0" cy="26.0" fill="rgb(0, 0, 0)" rx="2.0" ry="2.0" stroke="none" stroke-width="2.0"/>
   <ellipse cx="745.0" cy="36.0" fill="rgb(0, 0, 0)" rx="2.0" ry="2.0" stroke="none" stroke-width="2.0"/>
   <ellipse cx="745.0" cy="46.0" fill="rgb(0, 0, 0)" rx="2.0" ry="2.0" stroke="none" stroke-width="2.0"/>
   <ellipse cx="745.0" cy="56.0" fill="rgb(0, 0, 0)" rx="2.0" ry="2.0" stroke="none" stroke-width="2.0"/>
   <ellipse cx="745.0" cy="66.0" fill="rgb(0, 0, 0)" rx="2.0" ry="2.0" stroke="none" stroke-width="2.0"/>
   <ellipse cx="745.0" cy="76.0" fill="rgb(0, 0, 0)" rx="2.0" ry="2.0" stroke="none" stroke-width="2.0"/>
   <ellipse cx="745.0" cy="86.0" fill="rgb(0, 0, 0)" rx="2.0" ry="2.0" stroke="none" stroke-width="2.0"/>
   <ellipse cx="745.0" cy="96.0" fill="rgb(0, 0, 0)" rx="2.0" ry="2.0" stroke="none" stroke-width="2.0"/>
   <ellipse cx="745.0" cy="106.0" fill="rgb(0, 0, 0)" rx="2.0" ry="2.0" stroke="none" stroke-width="2.0"/>
   <ellipse cx="745.0" cy="116.0" fill="rgb(0, 0, 0)" rx="2.0" ry="2.0" stroke="none" stroke-width="2.0"/>
   <ellipse cx="745.0" cy="126.0" fill="rgb(0, 0, 0)" rx="2.0" ry="2.0" stroke="none" stroke-width="2.0"/>
   <ellipse cx="745.0" cy="136.0" fill="rgb(0, 0, 0)" rx="2.0" ry="2.0" stroke="none" stroke-width="2.0"/>
   <ellipse cx="745.0" cy="146.0" fill="rgb(0, 0, 0)" rx="2.0" ry="2.0" stroke="none" stroke-width="2.0"/>
   <ellipse cx="745.0" cy="156.0" fill="rgb(0, 0, 0)" rx="2.0" ry="2.0" stroke="none" stroke-width="2.0"/>
   <ellipse cx="745.0" cy="166.0" fill="rgb(0, 0, 0)" rx="2.0" ry="2.0" stroke="none" stroke-width="2.0"/>
   <ellipse cx="745.0" cy="176.0" fill="rgb(0, 0, 0)" rx="2.0" ry="2.0" stroke="none" stroke-width="2.0"/>
   <ellipse cx="745.0" cy="186.0" fill="rgb(0, 0, 0)" rx="2.0" ry="2.0" stroke="none" stroke-width="2.0"/>
   <ellipse cx="745.0" cy="196.0" fill="rgb(0, 0, 0)" rx="2.0" ry="2.0" stroke="none" stroke-width="2.0"/>
   <ellipse cx="745.0" cy="206.0" fill="rgb(0, 0, 0)" rx="2.0" ry="2.0" stroke="none" stroke-width="2.0"/>
   <ellipse cx="745.0" cy="216.0" fill="rgb(0, 0, 0)" rx="2.0" ry="2.0" stroke="none" stroke-width="2.0"/>
   <ellipse cx="745.0" cy="226.0" fill="rgb(0, 0, 0)" rx="2.0" ry="2.0" stroke="none" stroke-width="2.0"/>
   <ellipse cx="745.0" cy="236.0" fill="rgb(0, 0, 0)" rx="2.0" ry="2.0" stroke="none" stroke-width="2.0"/>
   <ellipse cx="745.0" cy="246.0" fill="rgb(0, 0, 0)" rx="2.0" ry="2.0" stroke="none" stroke-width="2.0"/>
   <ellipse cx="745.0" cy="256.0" fill="rgb(0, 0, 0)" rx="2.0" ry="2.0" stroke="none" stroke-width="2.0"/>
   <ellipse cx="745.0" cy="266.0" fill="rgb(0, 0, 0)" rx="2.0" ry="2.0" stroke="none" stroke-width="2.0"/>
   <ellipse cx="745.0" cy="276.0" fill="rgb(0, 0, 0)" rx="2.0" ry="2.0" stroke="none" stroke-width="2.0"/>
   <ellipse cx="745.0" cy="286.0" fill="rgb(0, 0, 0)" rx="2.0" ry="2.0" stroke="none" stroke-width="2.0"/>
   <ellipse cx="745.0" cy="296.0" fill="rgb(0, 0, 0)" rx="2.0" ry="2.0" stroke="none" stroke-width="2.0"/>
   <ellipse cx="745.0" cy="306.0" fill="rgb(0, 0, 0)" rx="2.0" ry="2.0" stroke="none" stroke-width="2.0"/>
   <ellipse cx="745.0" cy="316.0" fill="rgb(0, 0, 0)" rx="2.0" ry="2.0" stroke="none" stroke-width="2.0"/>
   <ellipse cx="745.0" cy="326.0" fill="rgb(0, 0, 0)" rx="2.0" ry="2.0" stroke="none" stroke-width="2.0"/>
   <ellipse cx="745.0" cy="336.0" fill="rgb(0, 0, 0)" rx="2.0" ry="2.0" stroke="none" stroke-width="2.0"/>
   <ellipse cx="765.0" cy="346.0" fill="rgb(0, 0, 0)" rx="2.0" ry="2.0" stroke="none" stroke-width="2.0"/>
   <ellipse cx="785.0" cy="186.0" fill="rgb(0, 0, 0)" rx="2.0" ry="2.0" stroke="none" stroke-width="2.0"/>
   <rect fill="rgb(0, 0, 0)" height="4" stroke="none" stroke-linecap="square" stroke-width="1.0" width="10" x="335" y="84"/>
   <text fill="rgb(64, 64, 64)" font-family="Courier 10 Pitch" font-size="12" x="350.0" y="90.0">INSTRUCTION</text>
   <rect fill="rgb(0, 0, 0)" height="4" stroke="none" stroke-linecap="square" stroke-width="1.0" width="10" x="335" y="104"/>
   <text fill="rgb(64, 64, 64)" font-family="Courier 10 Pitch" font-size="12" x="350.0" y="110.0">MICROINST..</text>
   <rect fill="rgb(0, 0, 0)" height="4" stroke="none" stroke-linecap="square" stroke-width="1.0" width="10" x="545" y="84"/>
   <text fill="rgb(64, 64, 64)" font-family="Courier 10 Pitch" font-size="12" x="463.0" y="90.0">MICROINST..</text>
   <rect fill="rgb(0, 0, 0)" height="20" stroke="none" stroke-linecap="square" stroke-width="1.0" width="200" x="345" y="116"/>
   <polyline fill="none" points="345,76 544,76" stroke="rgb(0, 0, 0)" stroke-linecap="square" stroke-width="2.0"/>
   <polyline fill="none" points="545,76 545,135" stroke="rgb(0, 0, 0)" stroke-linecap="square" stroke-width="2.0"/>
   <polyline fill="none" points="545,136 346,136" stroke="rgb(0, 0, 0)" stroke-linecap="square" stroke-width="2.0"/>
   <polyline fill="none" points="345,136 345,77" stroke="rgb(0, 0, 0)" stroke-linecap="square" stroke-width="2.0"/>
   <text fill="rgb(255, 255, 255)" font-family="Courier 10 Pitch" font-size="14" font-weight="bold" x="377.0" y="130.0">LOADSTORE_DECODER</text>
   <ellipse cx="335.0" cy="86.0" fill="rgb(0, 0, 0)" rx="2.0" ry="2.0" stroke="none" stroke-width="1.0"/>
   <ellipse cx="335.0" cy="106.0" fill="rgb(0, 0, 0)" rx="2.0" ry="2.0" stroke="none" stroke-width="1.0"/>
   <ellipse cx="555.0" cy="86.0" fill="rgb(0, 0, 0)" rx="2.0" ry="2.0" stroke="none" stroke-width="1.0"/>
   <rect fill="rgb(0, 0, 0)" height="4" stroke="none" stroke-linecap="square" stroke-width="1.0" width="10" x="335" y="154"/>
   <text fill="rgb(64, 64, 64)" font-family="Courier 10 Pitch" font-size="12" x="350.0" y="160.0">INSTRUCTION</text>
   <rect fill="rgb(0, 0, 0)" height="4" stroke="none" stroke-linecap="square" stroke-width="1.0" width="10" x="335" y="174"/>
   <text fill="rgb(64, 64, 64)" font-family="Courier 10 Pitch" font-size="12" x="350.0" y="180.0">MICROINST..</text>
   <rect fill="rgb(0, 0, 0)" height="4" stroke="none" stroke-linecap="square" stroke-width="1.0" width="10" x="545" y="154"/>
   <text fill="rgb(64, 64, 64)" font-family="Courier 10 Pitch" font-size="12" x="463.0" y="160.0">MICROINST..</text>
   <rect fill="rgb(0, 0, 0)" height="20" stroke="none" stroke-linecap="square" stroke-width="1.0" width="200" x="345" y="186"/>
   <polyline fill="none" points="345,146 544,146" stroke="rgb(0, 0, 0)" stroke-linecap="square" stroke-width="2.0"/>
   <polyline fill="none" points="545,146 545,205" stroke="rgb(0, 0, 0)" stroke-linecap="square" stroke-width="2.0"/>
   <polyline fill="none" points="545,206 346,206" stroke="rgb(0, 0, 0)" stroke-linecap="square" stroke-width="2.0"/>
   <polyline fill="none" points="345,206 345,147" stroke="rgb(0, 0, 0)" stroke-linecap="square" stroke-width="2.0"/>
   <text fill="rgb(255, 255, 255)" font-family="Courier 10 Pitch" font-size="14" font-weight="bold" x="401.0" y="200.0">SET_DECODER</text>
   <ellipse cx="335.0" cy="156.0" fill="rgb(0, 0, 0)" rx="2.0" ry="2.0" stroke="none" stroke-width="1.0"/>
   <ellipse cx="335.0" cy="176.0" fill="rgb(0, 0, 0)" rx="2.0" ry="2.0" stroke="none" stroke-width="1.0"/>
   <ellipse cx="555.0" cy="156.0" fill="rgb(0, 0, 0)" rx="2.0" ry="2.0" stroke="none" stroke-width="1.0"/>
   <rect fill="rgb(0, 0, 0)" height="4" stroke="none" stroke-linecap="square" stroke-width="1.0" width="10" x="335" y="224"/>
   <text fill="rgb(64, 64, 64)" font-family="Courier 10 Pitch" font-size="12" x="350.0" y="230.0">INSTRUCTION</text>
   <rect fill="rgb(0, 0, 0)" height="4" stroke="none" stroke-linecap="square" stroke-width="1.0" width="10" x="335" y="244"/>
   <text fill="rgb(64, 64, 64)" font-family="Courier 10 Pitch" font-size="12" x="350.0" y="250.0">MICROINST..</text>
   <rect fill="rgb(0, 0, 0)" height="4" stroke="none" stroke-linecap="square" stroke-width="1.0" width="10" x="545" y="224"/>
   <text fill="rgb(64, 64, 64)" font-family="Courier 10 Pitch" font-size="12" x="463.0" y="230.0">MICROINST..</text>
   <rect fill="rgb(0, 0, 0)" height="20" stroke="none" stroke-linecap="square" stroke-width="1.0" width="200" x="345" y="256"/>
   <polyline fill="none" points="345,216 544,216" stroke="rgb(0, 0, 0)" stroke-linecap="square" stroke-width="2.0"/>
   <polyline fill="none" points="545,216 545,275" stroke="rgb(0, 0, 0)" stroke-linecap="square" stroke-width="2.0"/>
   <polyline fill="none" points="545,276 346,276" stroke="rgb(0, 0, 0)" stroke-linecap="square" stroke-width="2.0"/>
   <polyline fill="none" points="345,276 345,217" stroke="rgb(0, 0, 0)" stroke-linecap="square" stroke-width="2.0"/>
   <text fill="rgb(255, 255, 255)" font-family="Courier 10 Pitch" font-size="14" font-weight="bold" x="397.0" y="270.0">JUMP_DECODER</text>
   <ellipse cx="335.0" cy="226.0" fill="rgb(0, 0, 0)" rx="2.0" ry="2.0" stroke="none" stroke-width="1.0"/>
   <ellipse cx="335.0" cy="246.0" fill="rgb(0, 0, 0)" rx="2.0" ry="2.0" stroke="none" stroke-width="1.0"/>
   <ellipse cx="555.0" cy="226.0" fill="rgb(0, 0, 0)" rx="2.0" ry="2.0" stroke="none" stroke-width="1.0"/>
   <rect fill="rgb(0, 0, 0)" height="4" stroke="none" stroke-linecap="square" stroke-width="1.0" width="10" x="335" y="294"/>
   <text fill="rgb(64, 64, 64)" font-family="Courier 10 Pitch" font-size="12" x="350.0" y="300.0">INSTRUCTION</text>
   <rect fill="rgb(0, 0, 0)" height="4" stroke="none" stroke-linecap="square" stroke-width="1.0" width="10" x="335" y="314"/>
   <text fill="rgb(64, 64, 64)" font-family="Courier 10 Pitch" font-size="12" x="350.0" y="320.0">MICROINST..</text>
   <rect fill="rgb(0, 0, 0)" height="4" stroke="none" stroke-linecap="square" stroke-width="1.0" width="10" x="545" y="294"/>
   <text fill="rgb(64, 64, 64)" font-family="Courier 10 Pitch" font-size="12" x="463.0" y="300.0">MICROINST..</text>
   <rect fill="rgb(0, 0, 0)" height="20" stroke="none" stroke-linecap="square" stroke-width="1.0" width="200" x="345" y="326"/>
   <polyline fill="none" points="345,286 544,286" stroke="rgb(0, 0, 0)" stroke-linecap="square" stroke-width="2.0"/>
   <polyline fill="none" points="545,286 545,345" stroke="rgb(0, 0, 0)" stroke-linecap="square" stroke-width="2.0"/>
   <polyline fill="none" points="545,346 346,346" stroke="rgb(0, 0, 0)" stroke-linecap="square" stroke-width="2.0"/>
   <polyline fill="none" points="345,346 345,287" stroke="rgb(0, 0, 0)" stroke-linecap="square" stroke-width="2.0"/>
   <text fill="rgb(255, 255, 255)" font-family="Courier 10 Pitch" font-size="14" font-weight="bold" x="385.0" y="340.0">SETADDR_DECODER</text>
   <ellipse cx="335.0" cy="296.0" fill="rgb(0, 0, 0)" rx="2.0" ry="2.0" stroke="none" stroke-width="1.0"/>
   <ellipse cx="335.0" cy="316.0" fill="rgb(0, 0, 0)" rx="2.0" ry="2.0" stroke="none" stroke-width="1.0"/>
   <ellipse cx="555.0" cy="296.0" fill="rgb(0, 0, 0)" rx="2.0" ry="2.0" stroke="none" stroke-width="1.0"/>
   <rect fill="rgb(0, 0, 0)" height="4" stroke="none" stroke-linecap="square" stroke-width="1.0" width="10" x="335" y="384"/>
   <text fill="rgb(64, 64, 64)" font-family="Courier 10 Pitch" font-size="12" x="350.0" y="390.0">INSTRUCTION</text>
   <rect fill="rgb(0, 0, 0)" height="4" stroke="none" stroke-linecap="square" stroke-width="1.0" width="10" x="335" y="404"/>
   <text fill="rgb(64, 64, 64)" font-family="Courier 10 Pitch" font-size="12" x="350.0" y="410.0">MICROINST..</text>
   <rect fill="rgb(0, 0, 0)" height="4" stroke="none" stroke-linecap="square" stroke-width="1.0" width="10" x="545" y="384"/>
   <text fill="rgb(64, 64, 64)" font-family="Courier 10 Pitch" font-size="12" x="463.0" y="390.0">MICROINST..</text>
   <rect fill="rgb(0, 0, 0)" height="20" stroke="none" stroke-linecap="square" stroke-width="1.0" width="200" x="345" y="416"/>
   <polyline fill="none" points="345,376 544,376" stroke="rgb(0, 0, 0)" stroke-linecap="square" stroke-width="2.0"/>
   <polyline fill="none" points="545,376 545,435" stroke="rgb(0, 0, 0)" stroke-linecap="square" stroke-width="2.0"/>
   <polyline fill="none" points="545,436 346,436" stroke="rgb(0, 0, 0)" stroke-linecap="square" stroke-width="2.0"/>
   <polyline fill="none" points="345,436 345,377" stroke="rgb(0, 0, 0)" stroke-linecap="square" stroke-width="2.0"/>
   <text fill="rgb(255, 255, 255)" font-family="Courier 10 Pitch" font-size="14" font-weight="bold" x="385.0" y="430.0">PUSHPOP_DECODER</text>
   <ellipse cx="335.0" cy="386.0" fill="rgb(0, 0, 0)" rx="2.0" ry="2.0" stroke="none" stroke-width="1.0"/>
   <ellipse cx="335.0" cy="406.0" fill="rgb(0, 0, 0)" rx="2.0" ry="2.0" stroke="none" stroke-width="1.0"/>
   <ellipse cx="555.0" cy="386.0" fill="rgb(0, 0, 0)" rx="2.0" ry="2.0" stroke="none" stroke-width="1.0"/>
   <rect fill="rgb(0, 0, 0)" height="4" stroke="none" stroke-linecap="square" stroke-width="1.0" width="10" x="545" y="464"/>
   <text fill="rgb(64, 64, 64)" font-family="Courier 10 Pitch" font-size="12" x="463.0" y="470.0">MICROINST..</text>
   <rect fill="rgb(0, 0, 0)" height="20" stroke="none" stroke-linecap="square" stroke-width="1.0" width="200" x="345" y="476"/>
   <polyline fill="none" points="345,456 544,456" stroke="rgb(0, 0, 0)" stroke-linecap="square" stroke-width="2.0"/>
   <polyline fill="none" points="545,456 545,495" stroke="rgb(0, 0, 0)" stroke-linecap="square" stroke-width="2.0"/>
   <polyline fill="none" points="545,496 346,496" stroke="rgb(0, 0, 0)" stroke-linecap="square" stroke-width="2.0"/>
   <polyline fill="none" points="345,496 345,457" stroke="rgb(0, 0, 0)" stroke-linecap="square" stroke-width="2.0"/>
   <text fill="rgb(255, 255, 255)" font-family="Courier 10 Pitch" font-size="14" font-weight="bold" x="397.0" y="490.0">DRAW_DECODER</text>
   <ellipse cx="555.0" cy="466.0" fill="rgb(0, 0, 0)" rx="2.0" ry="2.0" stroke="none" stroke-width="1.0"/>
   <rect fill="rgb(0, 0, 0)" height="4" stroke="none" stroke-linecap="square" stroke-width="1.0" width="10" x="335" y="14"/>
   <text fill="rgb(64, 64, 64)" font-family="Courier 10 Pitch" font-size="12" x="350.0" y="20.0">INSTRUCTION</text>
   <rect fill="rgb(0, 0, 0)" height="4" stroke="none" stroke-linecap="square" stroke-width="1.0" width="10" x="335" y="34"/>
   <text fill="rgb(64, 64, 64)" font-family="Courier 10 Pitch" font-size="12" x="350.0" y="40.0">MICROINST..</text>
   <rect fill="rgb(0, 0, 0)" height="4" stroke="none" stroke-linecap="square" stroke-width="1.0" width="10" x="545" y="14"/>
   <text fill="rgb(64, 64, 64)" font-family="Courier 10 Pitch" font-size="12" x="463.0" y="20.0">MICROINST..</text>
   <rect fill="rgb(0, 0, 0)" height="20" stroke="none" stroke-linecap="square" stroke-width="1.0" width="200" x="345" y="46"/>
   <polyline fill="none" points="345,6 544,6" stroke="rgb(0, 0, 0)" stroke-linecap="square" stroke-width="2.0"/>
   <polyline fill="none" points="545,6 545,65" stroke="rgb(0, 0, 0)" stroke-linecap="square" stroke-width="2.0"/>
   <polyline fill="none" points="545,66 346,66" stroke="rgb(0, 0, 0)" stroke-linecap="square" stroke-width="2.0"/>
   <polyline fill="none" points="345,66 345,7" stroke="rgb(0, 0, 0)" stroke-linecap="square" stroke-width="2.0"/>
   <text fill="rgb(255, 255, 255)" font-family="Courier 10 Pitch" font-size="14" font-weight="bold" x="393.0" y="60.0">ALUOP_DECODER</text>
   <ellipse cx="335.0" cy="16.0" fill="rgb(0, 0, 0)" rx="2.0" ry="2.0" stroke="none" stroke-width="1.0"/>
   <ellipse cx="335.0" cy="36.0" fill="rgb(0, 0, 0)" rx="2.0" ry="2.0" stroke="none" stroke-width="1.0"/>
   <ellipse cx="555.0" cy="16.0" fill="rgb(0, 0, 0)" rx="2.0" ry="2.0" stroke="none" stroke-width="1.0"/>
</svg>
