<?xml version="1.0" encoding="UTF-8" standalone="no"?>
<svg xmlns="http://www.w3.org/2000/svg" version="1.1" viewBox="0 0 130 181">
   <ellipse cx="45.0" cy="65.0" fill="rgb(0, 0, 0)" rx="5.0" ry="5.0" stroke="none" stroke-width="3.0"/>
   <ellipse cx="45.0" cy="35.0" fill="rgb(0, 0, 0)" rx="5.0" ry="5.0" stroke="none" stroke-width="3.0"/>
   <ellipse cx="45.0" cy="165.0" fill="rgb(0, 0, 0)" rx="5.0" ry="5.0" stroke="none" stroke-width="3.0"/>
   <ellipse cx="45.0" cy="135.0" fill="rgb(0, 0, 0)" rx="5.0" ry="5.0" stroke="none" stroke-width="3.0"/>
   <ellipse cx="45.0" cy="105.0" fill="rgb(0, 0, 0)" rx="5.0" ry="5.0" stroke="none" stroke-width="3.0"/>
   <ellipse cx="45.0" cy="75.0" fill="rgb(0, 0, 0)" rx="5.0" ry="5.0" stroke="none" stroke-width="3.0"/>
   <ellipse cx="45.0" cy="45.0" fill="rgb(0, 0, 0)" rx="5.0" ry="5.0" stroke="none" stroke-width="3.0"/>
   <ellipse cx="45.0" cy="145.0" fill="rgb(0, 0, 0)" rx="5.0" ry="5.0" stroke="none" stroke-width="3.0"/>
   <ellipse cx="45.0" cy="115.0" fill="rgb(0, 0, 0)" rx="5.0" ry="5.0" stroke="none" stroke-width="3.0"/>
   <ellipse cx="45.0" cy="85.0" fill="rgb(0, 0, 0)" rx="5.0" ry="5.0" stroke="none" stroke-width="3.0"/>
   <ellipse cx="45.0" cy="55.0" fill="rgb(0, 0, 0)" rx="5.0" ry="5.0" stroke="none" stroke-width="3.0"/>
   <ellipse cx="45.0" cy="25.0" fill="rgb(0, 0, 0)" rx="5.0" ry="5.0" stroke="none" stroke-width="3.0"/>
   <ellipse cx="45.0" cy="155.0" fill="rgb(0, 0, 0)" rx="5.0" ry="5.0" stroke="none" stroke-width="3.0"/>
   <ellipse cx="45.0" cy="125.0" fill="rgb(0, 0, 0)" rx="5.0" ry="5.0" stroke="none" stroke-width="3.0"/>
   <ellipse cx="45.0" cy="95.0" fill="rgb(0, 0, 0)" rx="5.0" ry="5.0" stroke="none" stroke-width="3.0"/>
   <polygon fill="none" points="30,24 40,15 30,6 6,6 6,24" stroke="rgb(0, 0, 0)" stroke-linecap="square" stroke-width="2.0"/>
   <text fill="rgb(0, 0, 0)" font-family="Monospaced" font-size="12" x="11.0" y="21.0">x1</text>
   <ellipse cx="45.0" cy="15.0" fill="rgb(0, 0, 0)" rx="2.0" ry="2.0" stroke="none" stroke-width="2.0"/>
   <polyline fill="none" points="69,15 68,15" stroke="rgb(0, 0, 0)" stroke-linecap="square" stroke-width="4.0"/>
   <polygon fill="none" points="115,6 125,15 115,24 71,24 71,6" stroke="rgb(0, 0, 0)" stroke-linecap="square" stroke-width="2.0"/>
   <text fill="rgb(0, 0, 0)" font-family="Monospaced" font-size="12" x="78.0" y="21.0">x16</text>
   <ellipse cx="65.0" cy="15.0" fill="rgb(0, 0, 0)" rx="2.0" ry="2.0" stroke="none" stroke-width="2.0"/>
   <polyline fill="none" points="45,25 59,25" stroke="rgb(0, 0, 0)" stroke-linecap="square" stroke-width="3.0"/>
   <polyline fill="none" points="45,35 59,35" stroke="rgb(0, 0, 0)" stroke-linecap="square" stroke-width="3.0"/>
   <polyline fill="none" points="45,45 59,45" stroke="rgb(0, 0, 0)" stroke-linecap="square" stroke-width="3.0"/>
   <polyline fill="none" points="45,55 59,55" stroke="rgb(0, 0, 0)" stroke-linecap="square" stroke-width="3.0"/>
   <polyline fill="none" points="45,65 59,65" stroke="rgb(0, 0, 0)" stroke-linecap="square" stroke-width="3.0"/>
   <polyline fill="none" points="45,75 59,75" stroke="rgb(0, 0, 0)" stroke-linecap="square" stroke-width="3.0"/>
   <polyline fill="none" points="45,85 59,85" stroke="rgb(0, 0, 0)" stroke-linecap="square" stroke-width="3.0"/>
   <polyline fill="none" points="45,95 59,95" stroke="rgb(0, 0, 0)" stroke-linecap="square" stroke-width="3.0"/>
   <polyline fill="none" points="45,105 59,105" stroke="rgb(0, 0, 0)" stroke-linecap="square" stroke-width="3.0"/>
   <polyline fill="none" points="45,115 59,115" stroke="rgb(0, 0, 0)" stroke-linecap="square" stroke-width="3.0"/>
   <polyline fill="none" points="45,125 59,125" stroke="rgb(0, 0, 0)" stroke-linecap="square" stroke-width="3.0"/>
   <polyline fill="none" points="45,135 59,135" stroke="rgb(0, 0, 0)" stroke-linecap="square" stroke-width="3.0"/>
   <polyline fill="none" points="45,145 59,145" stroke="rgb(0, 0, 0)" stroke-linecap="square" stroke-width="3.0"/>
   <polyline fill="none" points="45,155 59,155" stroke="rgb(0, 0, 0)" stroke-linecap="square" stroke-width="3.0"/>
   <polyline fill="none" points="45,165 59,165" stroke="rgb(0, 0, 0)" stroke-linecap="square" stroke-width="3.0"/>
   <polyline fill="none" points="40,15 45,15 45,25 45,35 45,45 45,55 45,65 45,75 45,85 45,95 45,105 45,115 45,125 45,135 45,145 45,155 45,165 45,175 59,175" stroke="rgb(0, 0, 0)" stroke-linecap="square" stroke-width="3.0"/>
   <polyline fill="none" points="59,174 59,21 64,16" stroke="rgb(0, 0, 0)" stroke-linecap="square" stroke-width="5.0"/>
   <text fill="rgb(0, 0, 0)" font-family="SansSerif" font-size="7" x="52.0" y="22.0">0</text>
   <text fill="rgb(0, 0, 0)" font-family="SansSerif" font-size="7" x="52.0" y="32.0">1</text>
   <text fill="rgb(0, 0, 0)" font-family="SansSerif" font-size="7" x="52.0" y="42.0">2</text>
   <text fill="rgb(0, 0, 0)" font-family="SansSerif" font-size="7" x="52.0" y="52.0">3</text>
   <text fill="rgb(0, 0, 0)" font-family="SansSerif" font-size="7" x="52.0" y="62.0">4</text>
   <text fill="rgb(0, 0, 0)" font-family="SansSerif" font-size="7" x="52.0" y="72.0">5</text>
   <text fill="rgb(0, 0, 0)" font-family="SansSerif" font-size="7" x="52.0" y="82.0">6</text>
   <text fill="rgb(0, 0, 0)" font-family="SansSerif" font-size="7" x="52.0" y="92.0">7</text>
   <text fill="rgb(0, 0, 0)" font-family="SansSerif" font-size="7" x="52.0" y="102.0">8</text>
   <text fill="rgb(0, 0, 0)" font-family="SansSerif" font-size="7" x="52.0" y="112.0">9</text>
   <text fill="rgb(0, 0, 0)" font-family="SansSerif" font-size="7" x="48.0" y="122.0">10</text>
   <text fill="rgb(0, 0, 0)" font-family="SansSerif" font-size="7" x="48.0" y="132.0">11</text>
   <text fill="rgb(0, 0, 0)" font-family="SansSerif" font-size="7" x="48.0" y="142.0">12</text>
   <text fill="rgb(0, 0, 0)" font-family="SansSerif" font-size="7" x="48.0" y="152.0">13</text>
   <text fill="rgb(0, 0, 0)" font-family="SansSerif" font-size="7" x="48.0" y="162.0">14</text>
   <text fill="rgb(0, 0, 0)" font-family="SansSerif" font-size="7" x="48.0" y="172.0">15</text>
   <ellipse cx="65.0" cy="15.0" fill="rgb(0, 0, 0)" rx="2.0" ry="2.0" stroke="none" stroke-width="5.0"/>
   <ellipse cx="45.0" cy="25.0" fill="rgb(0, 0, 0)" rx="2.0" ry="2.0" stroke="none" stroke-width="5.0"/>
   <ellipse cx="45.0" cy="35.0" fill="rgb(0, 0, 0)" rx="2.0" ry="2.0" stroke="none" stroke-width="5.0"/>
   <ellipse cx="45.0" cy="45.0" fill="rgb(0, 0, 0)" rx="2.0" ry="2.0" stroke="none" stroke-width="5.0"/>
   <ellipse cx="45.0" cy="55.0" fill="rgb(0, 0, 0)" rx="2.0" ry="2.0" stroke="none" stroke-width="5.0"/>
   <ellipse cx="45.0" cy="65.0" fill="rgb(0, 0, 0)" rx="2.0" ry="2.0" stroke="none" stroke-width="5.0"/>
   <ellipse cx="45.0" cy="75.0" fill="rgb(0, 0, 0)" rx="2.0" ry="2.0" stroke="none" stroke-width="5.0"/>
   <ellipse cx="45.0" cy="85.0" fill="rgb(0, 0, 0)" rx="2.0" ry="2.0" stroke="none" stroke-width="5.0"/>
   <ellipse cx="45.0" cy="95.0" fill="rgb(0, 0, 0)" rx="2.0" ry="2.0" stroke="none" stroke-width="5.0"/>
   <ellipse cx="45.0" cy="105.0" fill="rgb(0, 0, 0)" rx="2.0" ry="2.0" stroke="none" stroke-width="5.0"/>
   <ellipse cx="45.0" cy="115.0" fill="rgb(0, 0, 0)" rx="2.0" ry="2.0" stroke="none" stroke-width="5.0"/>
   <ellipse cx="45.0" cy="125.0" fill="rgb(0, 0, 0)" rx="2.0" ry="2.0" stroke="none" stroke-width="5.0"/>
   <ellipse cx="45.0" cy="135.0" fill="rgb(0, 0, 0)" rx="2.0" ry="2.0" stroke="none" stroke-width="5.0"/>
   <ellipse cx="45.0" cy="145.0" fill="rgb(0, 0, 0)" rx="2.0" ry="2.0" stroke="none" stroke-width="5.0"/>
   <ellipse cx="45.0" cy="155.0" fill="rgb(0, 0, 0)" rx="2.0" ry="2.0" stroke="none" stroke-width="5.0"/>
   <ellipse cx="45.0" cy="165.0" fill="rgb(0, 0, 0)" rx="2.0" ry="2.0" stroke="none" stroke-width="5.0"/>
   <ellipse cx="45.0" cy="175.0" fill="rgb(0, 0, 0)" rx="2.0" ry="2.0" stroke="none" stroke-width="5.0"/>
</svg>
