<?xml version="1.0" encoding="UTF-8" standalone="no"?>
<svg xmlns="http://www.w3.org/2000/svg" version="1.1" viewBox="0 0 966 136">
   <polyline fill="none" points="348,30 438,30" stroke="rgb(0, 0, 0)" stroke-linecap="square" stroke-width="4.0"/>
   <polyline fill="none" points="488,30 648,30 648,120 668,120" stroke="rgb(0, 0, 0)" stroke-linecap="square" stroke-width="4.0"/>
   <polyline fill="none" points="325,50 328,50" stroke="rgb(0, 0, 0)" stroke-linecap="square" stroke-width="4.0"/>
   <polygon fill="none" points="313,59 323,50 313,41 269,41 269,59" stroke="rgb(0, 0, 0)" stroke-linecap="square" stroke-width="2.0"/>
   <text fill="rgb(0, 0, 0)" font-family="Monospaced" font-size="12" x="281.0" y="56.0">x16</text>
   <text fill="rgb(0, 0, 0)" font-family="Monospaced" font-size="16" font-weight="bold" x="145.0" y="57.0">INSTRUCTION</text>
   <ellipse cx="328.0" cy="50.0" fill="rgb(0, 0, 0)" rx="2.0" ry="2.0" stroke="none" stroke-width="2.0"/>
   <polyline fill="none" points="348,30 334,30" stroke="rgb(0, 0, 0)" stroke-linecap="square" stroke-width="3.0"/>
   <polyline fill="none" points="348,40 334,40" stroke="rgb(0, 0, 0)" stroke-linecap="square" stroke-width="3.0"/>
   <polyline fill="none" points="334,31 334,44 329,49" stroke="rgb(0, 0, 0)" stroke-linecap="square" stroke-width="5.0"/>
   <text fill="rgb(0, 0, 0)" font-family="SansSerif" font-size="7" x="337.0" y="37.0">10-5</text>
   <text fill="rgb(0, 0, 0)" font-family="SansSerif" font-size="7" x="337.0" y="47.0">15-11</text>
   <ellipse cx="328.0" cy="50.0" fill="rgb(0, 0, 0)" rx="2.0" ry="2.0" stroke="none" stroke-width="5.0"/>
   <ellipse cx="348.0" cy="30.0" fill="rgb(0, 0, 0)" rx="2.0" ry="2.0" stroke="none" stroke-width="5.0"/>
   <ellipse cx="348.0" cy="40.0" fill="rgb(0, 0, 0)" rx="2.0" ry="2.0" stroke="none" stroke-width="5.0"/>
   <polyline fill="none" points="325,120 328,120" stroke="rgb(0, 0, 0)" stroke-linecap="square" stroke-width="4.0"/>
   <polygon fill="none" points="313,129 323,120 313,111 279,111 279,129" stroke="rgb(0, 0, 0)" stroke-linecap="square" stroke-width="2.0"/>
   <text fill="rgb(0, 0, 0)" font-family="Monospaced" font-size="12" x="289.0" y="126.0">x8</text>
   <text fill="rgb(0, 0, 0)" font-family="Monospaced" font-size="16" font-weight="bold" x="5.0" y="127.0">MICROINSTRUCTION_ADDRESS</text>
   <ellipse cx="328.0" cy="120.0" fill="rgb(0, 0, 0)" rx="2.0" ry="2.0" stroke="none" stroke-width="2.0"/>
   <text fill="rgb(0, 0, 0)" font-family="Monospaced" font-size="12" x="658.0" y="64.0">0</text>
   <ellipse cx="668.0" cy="60.0" fill="rgb(0, 0, 0)" rx="2.0" ry="2.0" stroke="none" stroke-width="1.0"/>
   <text fill="rgb(0, 0, 0)" font-family="Monospaced" font-size="12" x="658.0" y="74.0">0</text>
   <ellipse cx="668.0" cy="70.0" fill="rgb(0, 0, 0)" rx="2.0" ry="2.0" stroke="none" stroke-width="1.0"/>
   <text fill="rgb(0, 0, 0)" font-family="Monospaced" font-size="12" x="658.0" y="84.0">0</text>
   <ellipse cx="668.0" cy="80.0" fill="rgb(0, 0, 0)" rx="2.0" ry="2.0" stroke="none" stroke-width="1.0"/>
   <text fill="rgb(0, 0, 0)" font-family="Monospaced" font-size="12" x="658.0" y="94.0">0</text>
   <ellipse cx="668.0" cy="90.0" fill="rgb(0, 0, 0)" rx="2.0" ry="2.0" stroke="none" stroke-width="1.0"/>
   <text fill="rgb(0, 0, 0)" font-family="Monospaced" font-size="12" x="658.0" y="104.0">0</text>
   <ellipse cx="668.0" cy="100.0" fill="rgb(0, 0, 0)" rx="2.0" ry="2.0" stroke="none" stroke-width="1.0"/>
   <text fill="rgb(0, 0, 0)" font-family="Monospaced" font-size="12" x="658.0" y="114.0">1</text>
   <ellipse cx="668.0" cy="110.0" fill="rgb(0, 0, 0)" rx="2.0" ry="2.0" stroke="none" stroke-width="1.0"/>
   <polyline fill="none" points="692,50 691,50" stroke="rgb(0, 0, 0)" stroke-linecap="square" stroke-width="4.0"/>
   <polygon fill="none" points="768,41 778,50 768,59 694,59 694,41" stroke="rgb(0, 0, 0)" stroke-linecap="square" stroke-width="2.0"/>
   <text fill="rgb(0, 0, 0)" font-family="Monospaced" font-size="12" x="716.0" y="56.0">x29</text>
   <text fill="rgb(0, 0, 0)" font-family="Monospaced" font-size="16" font-weight="bold" x="780.0" y="57.0">MICROINSTRUCTION</text>
   <ellipse cx="688.0" cy="50.0" fill="rgb(0, 0, 0)" rx="2.0" ry="2.0" stroke="none" stroke-width="2.0"/>
   <polyline fill="none" points="668,60 682,60" stroke="rgb(0, 0, 0)" stroke-linecap="square" stroke-width="3.0"/>
   <polyline fill="none" points="668,70 682,70" stroke="rgb(0, 0, 0)" stroke-linecap="square" stroke-width="3.0"/>
   <polyline fill="none" points="668,80 682,80" stroke="rgb(0, 0, 0)" stroke-linecap="square" stroke-width="3.0"/>
   <polyline fill="none" points="668,90 682,90" stroke="rgb(0, 0, 0)" stroke-linecap="square" stroke-width="3.0"/>
   <polyline fill="none" points="668,100 682,100" stroke="rgb(0, 0, 0)" stroke-linecap="square" stroke-width="3.0"/>
   <polyline fill="none" points="668,110 682,110" stroke="rgb(0, 0, 0)" stroke-linecap="square" stroke-width="3.0"/>
   <polyline fill="none" points="668,120 682,120" stroke="rgb(0, 0, 0)" stroke-linecap="square" stroke-width="3.0"/>
   <polyline fill="none" points="682,119 682,56 687,51" stroke="rgb(0, 0, 0)" stroke-linecap="square" stroke-width="5.0"/>
   <text fill="rgb(0, 0, 0)" font-family="SansSerif" font-size="7" x="668.0" y="57.0">3-0</text>
   <text fill="rgb(0, 0, 0)" font-family="SansSerif" font-size="7" x="668.0" y="67.0">7-4</text>
   <text fill="rgb(0, 0, 0)" font-family="SansSerif" font-size="7" x="664.0" y="77.0">11-8</text>
   <text fill="rgb(0, 0, 0)" font-family="SansSerif" font-size="7" x="660.0" y="87.0">14-12</text>
   <text fill="rgb(0, 0, 0)" font-family="SansSerif" font-size="7" x="660.0" y="97.0">17-15</text>
   <text fill="rgb(0, 0, 0)" font-family="SansSerif" font-size="7" x="660.0" y="107.0">20-18</text>
   <text fill="rgb(0, 0, 0)" font-family="SansSerif" font-size="7" x="660.0" y="117.0">28-21</text>
   <ellipse cx="688.0" cy="50.0" fill="rgb(0, 0, 0)" rx="2.0" ry="2.0" stroke="none" stroke-width="5.0"/>
   <ellipse cx="668.0" cy="60.0" fill="rgb(0, 0, 0)" rx="2.0" ry="2.0" stroke="none" stroke-width="5.0"/>
   <ellipse cx="668.0" cy="70.0" fill="rgb(0, 0, 0)" rx="2.0" ry="2.0" stroke="none" stroke-width="5.0"/>
   <ellipse cx="668.0" cy="80.0" fill="rgb(0, 0, 0)" rx="2.0" ry="2.0" stroke="none" stroke-width="5.0"/>
   <ellipse cx="668.0" cy="90.0" fill="rgb(0, 0, 0)" rx="2.0" ry="2.0" stroke="none" stroke-width="5.0"/>
   <ellipse cx="668.0" cy="100.0" fill="rgb(0, 0, 0)" rx="2.0" ry="2.0" stroke="none" stroke-width="5.0"/>
   <ellipse cx="668.0" cy="110.0" fill="rgb(0, 0, 0)" rx="2.0" ry="2.0" stroke="none" stroke-width="5.0"/>
   <ellipse cx="668.0" cy="120.0" fill="rgb(0, 0, 0)" rx="2.0" ry="2.0" stroke="none" stroke-width="5.0"/>
   <polyline fill="none" points="438,5 487,5" stroke="rgb(0, 0, 0)" stroke-linecap="square" stroke-width="2.0"/>
   <polyline fill="none" points="488,5 488,54" stroke="rgb(0, 0, 0)" stroke-linecap="square" stroke-width="2.0"/>
   <polyline fill="none" points="488,55 439,55" stroke="rgb(0, 0, 0)" stroke-linecap="square" stroke-width="2.0"/>
   <polyline fill="none" points="438,55 438,6" stroke="rgb(0, 0, 0)" stroke-linecap="square" stroke-width="2.0"/>
   <text fill="rgb(0, 0, 0)" font-family="SansSerif" font-size="16" font-weight="bold" x="446.0" y="29.0">PLA</text>
   <ellipse cx="438.0" cy="30.0" fill="rgb(0, 0, 0)" rx="2.0" ry="2.0" stroke="none" stroke-width="2.0"/>
   <ellipse cx="488.0" cy="30.0" fill="rgb(0, 0, 0)" rx="2.0" ry="2.0" stroke="none" stroke-width="2.0"/>
</svg>
